<?xml version="1.0" encoding="UTF-8" standalone="no"?>
<!-- Created with Inkscape (http://www.inkscape.org/) -->

<svg
   width="1280"
   height="800"
   viewBox="0 0 338.66665 211.66667"
   version="1.1"
   id="svg5"
   inkscape:version="1.2.2 (732a01da63, 2022-12-09)"
   sodipodi:docname="desc.svg"
   xmlns:inkscape="http://www.inkscape.org/namespaces/inkscape"
   xmlns:sodipodi="http://sodipodi.sourceforge.net/DTD/sodipodi-0.dtd"
   xmlns="http://www.w3.org/2000/svg"
   xmlns:svg="http://www.w3.org/2000/svg">
  <sodipodi:namedview
     id="namedview7"
     pagecolor="#000000"
     bordercolor="#111111"
     borderopacity="1"
     inkscape:showpageshadow="0"
     inkscape:pageopacity="0"
     inkscape:pagecheckerboard="1"
     inkscape:deskcolor="#d1d1d1"
     inkscape:document-units="mm"
     showgrid="false"
     inkscape:zoom="0.88756632"
     inkscape:cx="541.368"
     inkscape:cy="68.727259"
     inkscape:window-width="1920"
     inkscape:window-height="1009"
     inkscape:window-x="-8"
     inkscape:window-y="-8"
     inkscape:window-maximized="1"
     inkscape:current-layer="layer1" />
  <defs
     id="defs2" />
  <g
     inkscape:label="Layer 1"
     inkscape:groupmode="layer"
     id="layer1">
    <path
       id="path20"
       d="m 338.66667,165 c 0,13.46563 -5.49356,26.20074 -14.33267,35.334 -6.47043,6.68576 -19.24575,11.36387 -25.50809,11.33267 h -19.0664 v -4.55104 H 286 c 21.50964,0 26.52723,-3.09792 35.334,-11.86113 9.05137,-9.00661 12.27236,-16.75155 12.37047,-36.2545 L 334.2545,49.667 C 334.31849,36.947737 329.70951,25.04212 321.334,16.7465 313.13816,8.628835 302.44021,4.375068 289,4.4125 L 250.10572,4.5208233 V 0 c 0,0 -43.98219,-0.1071261 41.89428,0 12.12287,0 24.06582,3.4551819 32.334,11.334 9.20121,8.76791 14.33267,18.68284 14.33267,35.333"
       fill="#ffffff"
       style="fill:#c758e6;fill-opacity:1;stroke:none;stroke-width:1.5;stroke-dasharray:none;stroke-opacity:1"
       sodipodi:nodetypes="casccsassascccac" />
  </g>
</svg>
