<?xml version="1.0" encoding="UTF-8" standalone="no"?>
<svg
   inkscape:version="1.2.2 (732a01da63, 2022-12-09)"
   sodipodi:docname="logof.svg"
   viewBox="0 0 1900 2100"
   height="2100"
   width="1900"
   id="svg2"
   version="1.1"
   xmlns:inkscape="http://www.inkscape.org/namespaces/inkscape"
   xmlns:sodipodi="http://sodipodi.sourceforge.net/DTD/sodipodi-0.dtd"
   xmlns:xlink="http://www.w3.org/1999/xlink"
   xmlns="http://www.w3.org/2000/svg"
   xmlns:svg="http://www.w3.org/2000/svg"
   xmlns:rdf="http://www.w3.org/1999/02/22-rdf-syntax-ns#"
   xmlns:cc="http://creativecommons.org/ns#"
   xmlns:dc="http://purl.org/dc/elements/1.1/"
   xmlns:serif="http://www.serif.com/">
  <metadata
     id="metadata8">
    <rdf:RDF>
      <cc:Work
         rdf:about="">
        <dc:format>image/svg+xml</dc:format>
        <dc:type
           rdf:resource="http://purl.org/dc/dcmitype/StillImage" />
      </cc:Work>
    </rdf:RDF>
  </metadata>
  <defs
     id="defs6">
    <inkscape:path-effect
       effect="perspective-envelope"
       up_left_point="5.0906918,44.59069"
       up_right_point="52.509187,36.533196"
       down_left_point="5.1143495,52.238186"
       down_right_point="52.53266,44.121059"
       id="path-effect7594"
       is_visible="true"
       lpeversion="1"
       deform_type="perspective"
       horizontal_mirror="false"
       vertical_mirror="false"
       overflow_perspective="false" />
    <rect
       x="3.0998333"
       y="54.746681"
       width="29.35784"
       height="12.85585"
       id="rect7650" />
    <clipPath
       id="clippath">
      <circle
         cx="43.540001"
         cy="63.59"
         r="1.36"
         class="cls-4"
         id="circle3713" />
    </clipPath>
    <linearGradient
       inkscape:collect="always"
       xlink:href="#linearGradient7552"
       id="linearGradient7554"
       x1="3.0999999"
       y1="22.923445"
       x2="51.330002"
       y2="22.923445"
       gradientUnits="userSpaceOnUse"
       gradientTransform="matrix(18.514769,0,0,19.230134,768.29572,71.275674)" />
    <linearGradient
       inkscape:collect="always"
       id="linearGradient7552">
      <stop
         style="stop-color:#c758e6;stop-opacity:1;"
         offset="0"
         id="stop7548" />
      <stop
         style="stop-color:#1b9fff;stop-opacity:1;"
         offset="1"
         id="stop7550" />
    </linearGradient>
    <linearGradient
       inkscape:collect="always"
       xlink:href="#linearGradient7568"
       id="linearGradient7570"
       x1="15.936483"
       y1="20.374577"
       x2="29.638157"
       y2="20.374577"
       gradientUnits="userSpaceOnUse"
       gradientTransform="matrix(18.514769,0,0,19.230134,768.29572,71.275674)" />
    <linearGradient
       inkscape:collect="always"
       id="linearGradient7568">
      <stop
         style="stop-color:#c758e6;stop-opacity:1;"
         offset="0"
         id="stop7564" />
      <stop
         style="stop-color:#11ffff;stop-opacity:1;"
         offset="1"
         id="stop7566" />
    </linearGradient>
  </defs>
  <sodipodi:namedview
     inkscape:guide-bbox="true"
     showguides="true"
     inkscape:snap-global="false"
     inkscape:snap-page="true"
     inkscape:snap-text-baseline="true"
     inkscape:snap-object-midpoints="true"
     inkscape:snap-center="true"
     inkscape:snap-midpoints="true"
     inkscape:snap-smooth-nodes="true"
     inkscape:object-paths="true"
     inkscape:snap-intersection-paths="true"
     inkscape:snap-bbox-edge-midpoints="true"
     inkscape:snap-bbox-midpoints="true"
     inkscape:bbox-nodes="true"
     inkscape:bbox-paths="true"
     inkscape:snap-bbox="true"
     inkscape:current-layer="g10"
     inkscape:window-maximized="1"
     inkscape:window-y="-8"
     inkscape:window-x="-8"
     inkscape:cy="1093.148"
     inkscape:cx="1514.3869"
     inkscape:zoom="0.53057774"
     showgrid="false"
     id="namedview4"
     inkscape:window-height="1009"
     inkscape:window-width="1920"
     inkscape:pageshadow="2"
     inkscape:pageopacity="0"
     guidetolerance="10"
     gridtolerance="10"
     objecttolerance="10"
     borderopacity="1"
     bordercolor="#666666"
     pagecolor="#ffffff"
     inkscape:showpageshadow="0"
     inkscape:pagecheckerboard="1"
     inkscape:deskcolor="#d1d1d1" />
  <g
     id="g10"
     inkscape:label="Image"
     inkscape:groupmode="layer">
    <rect
       ry="20"
       rx="25"
       y="302.72748"
       x="165.51689"
       height="1738.3323"
       width="1587.0704"
       id="rect14"
       style="fill:#8a8988;stroke-width:3.99999;stroke-linecap:round;stroke-linejoin:round;fill-opacity:1" />
    <rect
       style="fill:#8a8988;stroke-width:3.99999;stroke-linecap:round;stroke-linejoin:round;fill-opacity:1"
       id="rect16"
       width="1780.0159"
       height="1595.2429"
       x="67.152573"
       y="71.275673"
       rx="25"
       ry="19.999998" />
    <rect
       ry="20"
       rx="25"
       y="56.239235"
       x="337.43539"
       height="251.2019"
       width="389.92538"
       id="rect24"
       style="fill:#808080;stroke:none;stroke-width:4;stroke-linecap:round;stroke-linejoin:round" />
    <rect
       ry="20"
       rx="25"
       y="307.44113"
       x="341.18469"
       height="1728.4191"
       width="386.17609"
       id="rect22"
       style="fill:#666666;stroke:none;stroke-width:4;stroke-linecap:round;stroke-linejoin:round" />
    <path
       sodipodi:nodetypes="cccc"
       id="path20"
       d="m 1033.8646,1527.8325 -77.19195,133.7004 -77.27727,-133.8482 z"
       style="fill:#4d4d4d;stroke:none;stroke-width:1px;stroke-linecap:butt;stroke-linejoin:miter;stroke-opacity:1" />
    <rect
       style="fill:#999999;stroke:none;stroke-width:3.99999;stroke-linecap:round;stroke-linejoin:round"
       id="rect26"
       width="372.98294"
       height="188.7403"
       x="346.8389"
       y="1841.4657"
       rx="24.999998"
       ry="20" />
    <rect
       y="1767.9608"
       x="346.83893"
       height="40.788368"
       width="375.81003"
       id="rect28"
       style="fill:#999999;stroke:none;stroke-width:3.99999;stroke-linecap:round;stroke-linejoin:round" />
    <rect
       style="fill:#999999;stroke:none;stroke-width:3.99999;stroke-linecap:round;stroke-linejoin:round"
       id="rect30"
       width="375.81003"
       height="40.788368"
       x="346.83893"
       y="1690.6865" />
    <rect
       style="fill:#999999;stroke:none;stroke-width:3.99999;stroke-linecap:round;stroke-linejoin:round"
       id="rect32"
       width="375.81003"
       height="40.788368"
       x="346.83893"
       y="1615.297" />
    <rect
       y="1538.0227"
       x="346.83893"
       height="40.788368"
       width="375.81003"
       id="rect34"
       style="fill:#999999;stroke:none;stroke-width:3.99999;stroke-linecap:round;stroke-linejoin:round" />
    <rect
       style="fill:#999999;stroke:none;stroke-width:3.99999;stroke-linecap:round;stroke-linejoin:round"
       id="rect36"
       width="375.81003"
       height="40.788368"
       x="346.83893"
       y="1465.4603" />
    <rect
       y="1388.186"
       x="346.83893"
       height="40.788368"
       width="375.81003"
       id="rect38"
       style="fill:#999999;stroke:none;stroke-width:3.99999;stroke-linecap:round;stroke-linejoin:round" />
    <rect
       y="1312.7965"
       x="346.83893"
       height="40.788368"
       width="375.81003"
       id="rect40"
       style="fill:#999999;stroke:none;stroke-width:3.99999;stroke-linecap:round;stroke-linejoin:round" />
    <rect
       style="fill:#999999;stroke:none;stroke-width:3.99999;stroke-linecap:round;stroke-linejoin:round"
       id="rect42"
       width="375.81003"
       height="40.788368"
       x="346.83893"
       y="1235.5222" />
    <rect
       style="fill:#999999;stroke:none;stroke-width:3.99999;stroke-linecap:round;stroke-linejoin:round"
       id="rect44"
       width="375.81003"
       height="40.788368"
       x="346.83893"
       y="1167.6719" />
    <rect
       y="1090.3976"
       x="346.83893"
       height="40.788368"
       width="375.81003"
       id="rect46"
       style="fill:#999999;stroke:none;stroke-width:3.99999;stroke-linecap:round;stroke-linejoin:round" />
    <rect
       y="1015.008"
       x="346.83893"
       height="40.788368"
       width="375.81003"
       id="rect48"
       style="fill:#999999;stroke:none;stroke-width:3.99999;stroke-linecap:round;stroke-linejoin:round" />
    <rect
       style="fill:#999999;stroke:none;stroke-width:3.99999;stroke-linecap:round;stroke-linejoin:round"
       id="rect50"
       width="375.81003"
       height="40.788368"
       x="346.83893"
       y="937.7337" />
    <rect
       y="865.17126"
       x="346.83893"
       height="40.788368"
       width="375.81003"
       id="rect52"
       style="fill:#999999;stroke:none;stroke-width:3.99999;stroke-linecap:round;stroke-linejoin:round" />
    <rect
       style="fill:#999999;stroke:none;stroke-width:3.99999;stroke-linecap:round;stroke-linejoin:round"
       id="rect54"
       width="375.81003"
       height="40.788368"
       x="346.83893"
       y="787.89697" />
    <rect
       style="fill:#999999;stroke:none;stroke-width:3.99999;stroke-linecap:round;stroke-linejoin:round"
       id="rect56"
       width="375.81003"
       height="40.788368"
       x="346.83893"
       y="712.50745" />
    <rect
       y="635.23315"
       x="346.83893"
       height="40.788368"
       width="375.81003"
       id="rect58"
       style="fill:#999999;stroke:none;stroke-width:3.99999;stroke-linecap:round;stroke-linejoin:round" />
    <rect
       style="fill:#999999;stroke:none;stroke-width:3.99999;stroke-linecap:round;stroke-linejoin:round"
       id="rect60"
       width="375.81003"
       height="40.788368"
       x="346.83893"
       y="567.38269" />
    <rect
       y="490.10837"
       x="346.83893"
       height="40.788368"
       width="375.81003"
       id="rect62"
       style="fill:#999999;stroke:none;stroke-width:3.99999;stroke-linecap:round;stroke-linejoin:round" />
    <rect
       y="414.71884"
       x="346.83893"
       height="40.788368"
       width="375.81003"
       id="rect64"
       style="fill:#999999;stroke:none;stroke-width:3.99999;stroke-linecap:round;stroke-linejoin:round" />
    <rect
       style="fill:#999999;stroke:none;stroke-width:3.99999;stroke-linecap:round;stroke-linejoin:round"
       id="rect66"
       width="375.81003"
       height="40.788368"
       x="346.83893"
       y="337.44455" />
    <rect
       y="270.08401"
       x="346.83893"
       height="36.528976"
       width="375.81003"
       id="rect68"
       style="fill:#b3b3b3;stroke:none;stroke-width:3.99999;stroke-linecap:round;stroke-linejoin:round" />
    <rect
       style="fill:#b3b3b3;stroke:none;stroke-width:3.99999;stroke-linecap:round;stroke-linejoin:round"
       id="rect70"
       width="375.81003"
       height="36.528976"
       x="346.83893"
       y="200.8792" />
    <rect
       style="fill:#b3b3b3;stroke:none;stroke-width:3.99999;stroke-linecap:round;stroke-linejoin:round"
       id="rect72"
       width="375.81003"
       height="36.528976"
       x="346.83893"
       y="133.36234" />
    <rect
       y="65.965797"
       x="346.83893"
       height="36.528976"
       width="375.81003"
       id="rect74"
       style="fill:#b3b3b3;stroke:none;stroke-width:3.99999;stroke-linecap:round;stroke-linejoin:round" />
    <path
       d="M 767.55508,71.275674 H 1776.6099 V 419.82186 768.36804 1426.9142 c 0,0 0.2746,21.5433 -6.1254,29.1225 -5.5244,6.5423 -23.8972,9.4236 -23.8972,9.4236 l -474.5048,10e-5 -476.20173,-10e-5 c 0,0 -17.46372,-3.8907 -22.67148,-10.366 -5.59524,-6.957 -5.65421,-26.1801 -5.65421,-26.1801 V 768.36804 419.82186 Z"
       style="fill:#0d0f18;stroke-width:0"
       id="path3720"
       sodipodi:nodetypes="cccccscccscccc" />
    <path
       d="m 1657.9302,1379.8863 -24.4394,-10.9612 -0.3703,27.6915 -20.7366,-17.4995 -7.591,26.7299 -15.3673,-22.6916 -14.2563,23.4608 -8.8871,-26.153 -19.8109,18.6533 -1.8514,-27.6914 -23.8841,12.4996 5.3693,-27.1145 -26.1058,5.1921 12.2198,-24.6146 -26.6613,-2.3076 18.1445,-20.1916 -24.9949,-9.6151 22.7731,-14.4226 -21.4771,-16.3456 25.5504,-7.4998 -16.4782,-21.73 h 26.6612 l -10.3682,-25.5761 25.7355,7.3075 -3.3327,-27.4991 22.9584,14.4225 3.888,-27.499 18.3297,20.3839 10.9237,-25.3838 12.4049,24.6146 17.0336,-21.3455 5.5544,27.1146 22.0326,-15.5765 -1.8515,27.6914 25.1801,-9.0381 -8.8871,26.153 26.6613,-1.5385 -15.3673,22.6916 26.1059,5.9613 -20.7366,17.6918 23.6989,13.0764 -24.6246,10.9613 19.2553,19.2301 -26.2909,3.846 13.5158,23.8454 -26.4762,-3.6537 z"
       style="fill:#e4b523;stroke-width:0"
       id="path3722" />
    <path
       d="m 1574.4286,1346.4258 v -18.8454 a 33.326584,34.614241 0 0 0 23.3287,-9.8074 c 2.9624,-3.0769 5.5544,-6.9229 7.2208,-10.9612 1.6663,-4.0383 2.592,-8.4612 2.592,-12.8842 0,-4.4229 -0.9257,-8.8459 -2.592,-12.8842 -1.6664,-4.0383 -4.0733,-7.8843 -7.2208,-10.9612 a 32.771141,34.037337 0 0 0 -23.3287,-9.8073 v -18.8455 c 13.3307,0 26.2911,5.5767 35.7336,15.3841 a 50.434231,52.382886 0 0 1 0,74.2282 c -9.4425,9.8074 -22.2178,15.3841 -35.7336,15.3841"
       class="cls-4"
       id="path3724"
       style="fill:#000000;fill-opacity:1;stroke-width:0" />
    <ellipse
       cx="1574.4308"
       cy="1294.1205"
       style="fill:#ffffff;stroke-width:1"
       id="circle3726"
       rx="25.180086"
       ry="26.152983" />
    <path
       d="m 43.54,64.95 c 0.75,0 1.36,-0.61 1.36,-1.36 0,-0.75 -0.61,-1.36 -1.36,-1.36 -0.75,0 -1.36,0.61 -1.36,1.36 0,0.75 0.61,1.36 1.36,1.36"
       class="cls-4"
       style="fill:#000000;fill-opacity:1;stroke-width:0"
       clip-path="url(#clippath)"
       id="path3728"
       transform="matrix(18.514768,0,0,19.230133,768.29499,71.275388)" />
    <path
       d="M 1709.4013,719.33118 834.94885,865.48026 V 157.04208 h 874.45245 z"
       style="fill:#000000;fill-opacity:1;stroke:url(#linearGradient7554);stroke-width:7.7;stroke-miterlimit:10;stroke-dasharray:none"
       id="path3732" />
    <g
       transform="matrix(4.2623172,0,0,4.4270026,979.05608,154.33725)"
       id="g5426"
       style="clip-rule:evenodd;fill-rule:evenodd;stroke-width:0.465267;stroke-linejoin:round;stroke-miterlimit:2">
        <g
   id="D"
   transform="matrix(-0.674885,0,0,-0.674885,223.747,109.037)"
   style="stroke-width:0.465267">
            <path
   d="m 172.54,-2.511 c 3.246,-3.246 6.838,-5.729 10.775,-7.449 3.936,-1.72 8.218,-2.58 12.845,-2.58 h 75.695 V 6.901 H 196.16 c -1.72,0 -3.337,0.321 -4.851,0.963 -1.514,0.642 -2.834,1.526 -3.961,2.653 -1.126,1.126 -2.011,2.447 -2.653,3.961 -0.642,1.514 -0.963,3.131 -0.963,4.851 v 77.026 c 0,1.599 0.352,3.143 1.054,4.633 0.703,1.49 1.63,2.81 2.78,3.961 1.151,1.151 2.471,2.078 3.961,2.78 1.49,0.703 3.035,1.054 4.633,1.054 h 75.695 v 19.441 H 196.16 c -2.301,0 -4.536,-0.242 -6.704,-0.726 -2.168,-0.485 -4.252,-1.169 -6.25,-2.054 -1.999,-0.884 -3.895,-1.944 -5.688,-3.179 -1.792,-1.236 -3.452,-2.592 -4.978,-4.07 -3.174,-3.077 -5.639,-6.62 -7.395,-10.629 -1.756,-4.01 -2.635,-8.34 -2.635,-12.992 V 21.11 c 0,-4.652 0.86,-8.94 2.58,-12.864 1.721,-3.925 4.204,-7.51 7.45,-10.757 z"
   style="fill:#ffffff;fill-rule:nonzero;stroke-width:0.465267"
   id="path5420" />

        </g>

        <g
   id="Left-Symbol"
   serif:id="Left Symbol"
   transform="matrix(0.494792,0,0,0.494792,6.66667,6.66667)"
   style="stroke-width:0.465267">
            
        </g>

    </g>
    <path
       d="m 1086.9588,365.13868 h 168.1975 c 6.332,0 12.1124,0.78457 17.3446,2.37917 5.2323,1.59218 9.948,3.7545 14.1472,6.5053 4.1991,2.753 7.8576,6.01597 10.981,9.79605 3.1216,3.77756 5.7137,7.87143 7.7799,12.27666 2.0663,4.40775 3.6142,9.02553 4.6472,13.85303 1.0184,4.8277 1.5368,9.68988 1.4812,14.58686 0,4.9914 -0.5183,9.9345 -1.5552,14.83147 -1.0183,4.89667 -2.5809,9.54903 -4.6472,13.95657 -2.0663,4.40776 -4.6583,8.47846 -7.7798,12.21001 -3.1198,3.73145 -6.7709,6.95995 -10.9461,9.68989 -4.1768,2.72763 -8.8796,4.86228 -14.1119,6.40154 -5.2304,1.54607 -11.0144,2.30758 -17.3465,2.30758 h -0.7405 l 60.6247,77.09923 h -48.8364 l -60.6247,-77.09923 h -100.837 v 77.09923 h -39.3383 v -173.4358 c 0,-3.35761 0.5183,-6.41308 1.5551,-9.16628 1.0184,-2.75069 2.5033,-5.11833 4.4121,-7.10049 1.9108,-1.98457 4.1881,-3.50989 6.8376,-4.58319 2.6494,-1.06146 5.5895,-1.61535 8.8241,-1.61535 z m 167.455,81.36634 c 2.918,0 5.4786,-0.62306 7.6781,-1.89224 2.1996,-1.26918 4.0418,-2.9145 5.523,-4.96604 1.4812,-2.05375 2.5939,-4.39612 3.3345,-7.03142 0.7406,-2.63531 1.1293,-5.32857 1.1479,-8.08146 0,-2.753 -0.3333,-5.44625 -1.0368,-8.08156 -0.7036,-2.63519 -1.7959,-4.97998 -3.266,-7.03142 -1.4627,-2.05385 -3.3012,-3.70839 -5.523,-4.96856 -2.2218,-1.26918 -4.8398,-1.89224 -7.8466,-1.89224 h -149.6697 v 43.93645 z"
       style="white-space:pre;shape-inside:url(#rect752);clip-rule:evenodd;fill:url(#linearGradient7570);fill-opacity:1;fill-rule:evenodd;stroke:#000000;stroke-width:0.215;stroke-linejoin:round;stroke-miterlimit:2;stroke-dasharray:none;stroke-opacity:1;paint-order:fill markers stroke"
       id="path5606" />
    <g
       id="g7592"
       inkscape:path-effect="#path-effect7594"
       transform="matrix(18.82173,0.16537665,-0.05822543,19.238425,732.47082,49.364954)"
       style="stroke-width:0.0525508">
      <g
         aria-label="Game Media"
         transform="translate(-273.00315,-875.2474)"
         id="text4644"
         style="font-size:8px;font-family:'Upheaval TT (BRK)';-inkscape-font-specification:'Upheaval TT (BRK)';word-spacing:0px;white-space:pre;shape-inside:url(#rect4646);fill:#1b9fff;stroke-width:0.724953;stroke-linecap:round;stroke-miterlimit:4.5;paint-order:fill markers stroke">
        <path
           d="m 282.18505,922.13188 0.4079,-0.0695 -0.004,-1.32765 -0.40789,0.0694 -0.001,-0.33193 -2.0403,0.34714 0.002,0.66409 0.81628,-0.13898 0.002,0.66401 -1.2245,0.2086 -0.006,-1.9924 2.85642,-0.48569 -0.002,-0.66382 -4.08142,0.69353 0.001,0.33213 -0.40844,0.0694 0.008,2.65725 0.40844,-0.0696 0.001,0.33213 3.67352,-0.62622 z"
           id="path4999"
           style="stroke-width:0.724953"
           inkscape:original-d="m 282.83789,920.26276 h 0.4 v -1.6 h -0.4 v -0.4 h -2 v 0.8 h 0.8 v 0.8 h -1.2 v -2.4 h 2.8 v -0.8 h -4 v 0.4 h -0.4 v 3.2 h 0.4 v 0.4 h 3.6 z" />
        <path
           d="m 284.62852,920.71955 1.22254,-0.20814 0.004,1.32693 1.62929,-0.27774 -0.009,-2.9848 -0.40724,0.0692 -0.001,-0.33167 -1.22205,0.20766 -2.44557,0.41555 0.001,0.33187 -0.40779,0.0693 0.009,2.987 1.63081,-0.278 z m -0.004,-1.32721 1.22253,-0.20787 0.002,0.66347 -1.22254,0.20801 z"
           id="path5001"
           style="stroke-width:0.724953"
           inkscape:original-d="m 285.23789,919.06276 h 1.2 v 1.6 h 1.6 v -3.6 h -0.4 v -0.4 h -1.2 -2.4 v 0.4 h -0.4 v 3.6 h 1.6 z m 0,-1.6 h 1.2 v 0.8 h -1.2 z" />
        <path
           d="m 289.5147,919.55596 0.40691,-0.0693 0.001,0.33151 0.40686,-0.0693 0.001,0.33149 0.4068,-0.0693 -0.001,-0.33147 0.40675,-0.0693 -0.001,-0.33144 0.40669,-0.0692 0.005,1.65711 1.62623,-0.27722 -0.0102,-3.31334 -1.62623,0.27634 0.001,0.33142 -0.40669,0.0691 0.001,0.33144 -0.40674,0.0692 0.001,0.33146 -0.4068,0.0692 -0.001,-0.33149 -0.40685,0.0692 -0.001,-0.33151 -0.40691,0.0692 -0.001,-0.33154 -1.62819,0.27667 0.0103,3.31623 1.62819,-0.27756 z"
           id="path5003"
           style="stroke-width:0.724953"
           inkscape:original-d="m 290.0379,918.66276 h 0.4 v 0.4 h 0.4 v 0.4 h 0.4 v -0.4 h 0.4 v -0.4 h 0.4 v 2 h 1.6 v -4 h -1.6 v 0.4 h -0.4 v 0.4 h -0.4 v 0.4 h -0.4 v -0.4 h -0.4 v -0.4 h -0.4 v -0.4 h -1.6 v 4 h 1.6 z" />
        <path
           d="m 293.99285,920.45112 4.06067,-0.69222 -0.002,-0.66214 -2.8419,0.48415 -0.002,-0.66245 1.21828,-0.20741 -0.002,-0.66231 -1.21828,0.20728 -0.002,-0.66245 2.8419,-0.48321 -0.002,-0.66214 -4.06068,0.69 0.001,0.33129 -0.40637,0.0691 0.008,2.65049 0.40637,-0.0693 z"
           id="path5005"
           style="stroke-width:0.724953"
           inkscape:original-d="m 294.4379,920.66276 h 4 v -0.8 h -2.8 v -0.8 h 1.2 v -0.8 h -1.2 v -0.8 h 2.8 v -0.8 h -4 v 0.4 h -0.4 v 3.2 h 0.4 z" />
        <path
           d="m 302.91404,917.27544 0.40512,-0.0689 0.001,0.33078 0.40506,-0.069 0.001,0.33076 0.40501,-0.069 -0.001,-0.33074 0.40496,-0.0689 -0.001,-0.33072 0.4049,-0.0689 0.005,1.65346 1.61906,-0.276 -0.0102,-3.30603 -1.61906,0.27511 0.001,0.3307 -0.4049,0.0688 0.001,0.33071 -0.40496,0.0689 0.001,0.33073 -0.405,0.0689 -0.001,-0.33076 -0.40506,0.0689 -0.001,-0.33078 -0.40512,0.0689 -0.001,-0.3308 -1.62102,0.27544 0.0102,3.30891 1.62101,-0.27634 z"
           id="path5007"
           style="stroke-width:0.724953"
           inkscape:original-d="m 303.23791,918.66276 h 0.4 v 0.4 h 0.4 v 0.4 h 0.4 v -0.4 h 0.4 v -0.4 h 0.4 v 2 h 1.6 v -4 h -1.6 v 0.4 h -0.4 v 0.4 h -0.4 v 0.4 h -0.4 v -0.4 h -0.4 v -0.4 h -0.4 v -0.4 h -1.6 v 4 h 1.6 z" />
        <path
           d="m 307.37247,918.1703 4.04278,-0.68917 -0.002,-0.66068 -2.82937,0.48202 -0.002,-0.66099 1.21292,-0.2065 -0.002,-0.66085 -1.21291,0.20637 -0.002,-0.66099 2.82938,-0.48108 -0.002,-0.66068 -4.04278,0.68696 0.001,0.33056 -0.40458,0.0688 0.008,2.64465 0.40458,-0.0689 z"
           id="path5009"
           style="stroke-width:0.724953"
           inkscape:original-d="m 307.63792,920.66276 h 4 v -0.8 h -2.8 v -0.8 h 1.2 v -0.8 h -1.2 v -0.8 h 2.8 v -0.8 h -4 v 0.4 h -0.4 v 3.2 h 0.4 z" />
        <path
           d="m 315.45161,916.46276 0.40344,-0.0688 -0.001,-0.3301 0.40338,-0.0687 -0.006,-1.98044 -0.40339,0.0686 -0.001,-0.33009 -0.40344,0.0686 -0.001,-0.33011 -0.80705,0.13713 -0.4036,0.0686 -2.42276,0.41169 0.0102,3.30315 3.6334,-0.61938 z m -1.21678,-1.77479 0.4036,-0.0686 0.004,1.32064 -0.4036,0.0687 0.001,0.33018 -0.80737,0.13754 -0.006,-1.98136 0.80737,-0.13728 z"
           id="path5011"
           style="stroke-width:0.724953"
           inkscape:original-d="m 315.63792,920.26276 h 0.4 v -0.4 h 0.4 v -2.4 h -0.4 v -0.4 h -0.4 v -0.4 h -0.8 -0.4 -2.4 v 4 h 3.6 z m -1.2,-2.4 h 0.4 v 1.6 h -0.4 v 0.4 h -0.8 v -2.4 h 0.8 z" />
        <path
           d="m 316.65462,913.94617 1.20968,-0.20568 0.006,1.97991 -1.20968,0.20608 0.002,0.6601 4.03038,-0.68705 -0.002,-0.65967 -1.20855,0.20589 -0.006,-1.97938 1.20855,-0.20549 -0.002,-0.65966 -4.03039,0.68485 z"
           id="path5013"
           style="stroke-width:0.724953"
           inkscape:original-d="m 316.83792,917.46276 h 1.2 v 2.4 h -1.2 v 0.8 h 4 v -0.8 h -1.2 v -2.4 h 1.2 v -0.8 h -4 z" />
        <path
           d="m 322.70226,914.23746 1.20726,-0.20554 0.004,1.31862 1.60893,-0.27427 -0.009,-2.96611 -0.40216,0.0684 -0.001,-0.32959 -1.20677,0.20506 -2.41501,0.41037 0.001,0.32978 -0.40269,0.0684 0.009,2.96828 1.61043,-0.27453 z m -0.004,-1.31889 1.20726,-0.20527 0.002,0.65931 -1.20726,0.20541 z"
           id="path5015"
           style="stroke-width:0.724953"
           inkscape:original-d="m 322.83792,919.06276 h 1.2 v 1.6 h 1.6 v -3.6 h -0.4 v -0.4 h -1.2 -2.4 v 0.4 h -0.4 v 3.6 h 1.6 z m 0,-1.6 h 1.2 v 0.8 h -1.2 z" />
      </g>
      <g
         aria-label="Missing"
         transform="translate(-273.00315,-870.03791)"
         id="text4644-3"
         style="font-size:8px;font-family:'Upheaval TT (BRK)';-inkscape-font-specification:'Upheaval TT (BRK)';word-spacing:0px;white-space:pre;shape-inside:url(#rect4646-3);fill:#1b9fff;stroke-width:0.724953;stroke-linecap:round;stroke-miterlimit:4.5;paint-order:fill markers stroke">
        <path
           d="m 279.7458,920.33614 0.40823,-0.0698 0.001,0.33205 0.40817,-0.0698 0.001,0.33202 0.40811,-0.0698 -0.001,-0.332 0.40806,-0.0698 -0.001,-0.33198 0.408,-0.0697 0.005,1.65979 1.63147,-0.27928 -0.0103,-3.31868 -1.63146,0.27839 0.001,0.33196 -0.408,0.0696 0.001,0.33198 -0.40806,0.0697 0.001,0.332 -0.40811,0.0697 -0.001,-0.33203 -0.40817,0.0697 -0.001,-0.33205 -0.40823,0.0697 -0.001,-0.33207 -1.63345,0.27872 0.0103,3.32158 1.63344,-0.27962 z"
           id="path5018"
           style="stroke-width:0.724953"
           inkscape:original-d="m 280.43789,918.66276 h 0.4 v 0.4 h 0.4 v 0.4 h 0.4 v -0.4 h 0.4 v -0.4 h 0.4 v 2 h 1.6 v -4 h -1.6 v 0.4 h -0.4 v 0.4 h -0.4 v 0.4 h -0.4 v -0.4 h -0.4 v -0.4 h -0.4 v -0.4 h -1.6 v 4 h 1.6 z" />
        <path
           d="m 283.8225,918.64334 1.22286,-0.2088 0.006,1.99067 -1.22286,0.2092 0.002,0.66369 4.07429,-0.69744 -0.002,-0.66325 -1.22171,0.209 -0.006,-1.99013 1.22171,-0.2086 -0.002,-0.66325 -4.07429,0.69522 z"
           id="path5020"
           style="stroke-width:0.724953"
           inkscape:original-d="m 284.4379,917.46276 h 1.2 v 2.4 h -1.2 v 0.8 h 4 v -0.8 h -1.2 v -2.4 h 1.2 v -0.8 h -4 z" />
        <path
           d="m 288.31212,920.53097 4.06828,-0.69642 -0.001,-0.33137 0.40653,-0.0696 -0.004,-1.32543 -0.40653,0.0695 -0.001,-0.33137 -1.21991,0.20842 -1.22041,0.20851 -0.002,-0.66302 2.84685,-0.48608 -0.002,-0.66272 -4.06774,0.6941 0.001,0.33158 -0.40707,0.0695 0.004,1.32641 0.40707,-0.0696 0.001,0.33158 2.4413,-0.41737 0.002,0.66289 -2.84837,0.48728 z"
           id="path5022"
           style="stroke-width:0.724953"
           inkscape:original-d="m 288.83789,920.66276 h 4 v -0.4 h 0.4 v -1.6 h -0.4 v -0.4 h -1.2 -1.2 v -0.8 h 2.8 v -0.8 h -4 v 0.4 h -0.4 v 1.6 h 0.4 v 0.4 h 2.4 v 0.8 h -2.8 z" />
        <path
           d="m 293.19341,919.69538 4.06174,-0.69529 -0.001,-0.33111 0.40587,-0.0695 -0.004,-1.32436 -0.40588,0.0694 -0.001,-0.33111 -1.21796,0.20809 -1.21844,0.20817 -0.002,-0.66249 2.84227,-0.4853 -0.002,-0.66218 -4.0612,0.69299 0.001,0.33131 -0.40642,0.0694 0.004,1.32533 0.40642,-0.0695 0.001,0.33132 2.43737,-0.4167 0.002,0.66235 -2.84379,0.4865 z"
           id="path5024"
           style="stroke-width:0.724953"
           inkscape:original-d="m 293.63789,920.66276 h 4 v -0.4 h 0.4 v -1.6 h -0.4 v -0.4 h -1.2 -1.2 v -0.8 h 2.8 v -0.8 h -4 v 0.4 h -0.4 v 1.6 h 0.4 v 0.4 h 2.4 v 0.8 h -2.8 z" />
        <path
           d="m 298.05866,916.2126 1.21714,-0.20782 0.006,1.98601 -1.21714,0.20821 0.002,0.66214 4.05522,-0.69418 -0.002,-0.66169 -1.216,0.20802 -0.006,-1.98547 1.21599,-0.20763 -0.002,-0.66169 -4.05523,0.69196 z"
           id="path5026"
           style="stroke-width:0.724953"
           inkscape:original-d="m 298.4379,917.46276 h 1.2 v 2.4 h -1.2 v 0.8 h 4 v -0.8 h -1.2 v -2.4 h 1.2 v -0.8 h -4 z" />
        <path
           d="m 304.14253,916.16654 0.40496,-0.0692 0.001,0.33072 0.4049,-0.0692 0.001,0.33069 0.40485,-0.0692 0.003,0.99201 1.61883,-0.27712 -0.0102,-3.3058 -1.61884,0.27623 0.003,0.992 -0.40485,0.0692 -0.001,-0.33069 -0.4049,0.0691 -0.001,-0.33071 -0.40496,0.0691 -0.001,-0.33073 -1.62036,0.27649 0.0102,3.30824 1.62035,-0.27738 z"
           id="path5028"
           style="stroke-width:0.724953"
           inkscape:original-d="m 304.43789,918.66276 h 0.4 v 0.4 h 0.4 v 0.4 h 0.4 v 1.2 h 1.6 v -4 h -1.6 v 1.2 h -0.4 v -0.4 h -0.4 v -0.4 h -0.4 v -0.4 h -1.6 v 4 h 1.6 z" />
        <path
           d="m 311.42751,916.24353 0.40398,-0.0691 -0.004,-1.32126 -0.40398,0.069 -0.001,-0.33033 -2.02072,0.34524 0.002,0.6609 0.80845,-0.13822 0.002,0.66081 -1.21275,0.20747 -0.006,-1.98282 2.82899,-0.48304 -0.002,-0.66063 -4.04224,0.68975 0.001,0.33053 -0.40452,0.069 0.008,2.64447 0.40452,-0.0692 0.001,0.33053 3.63825,-0.6228 z"
           id="path5030"
           style="stroke-width:0.724953"
           inkscape:original-d="m 311.63789,920.26276 h 0.4 v -1.6 h -0.4 v -0.4 h -2 v 0.8 h 0.8 v 0.8 h -1.2 v -2.4 h 2.8 v -0.8 h -4 v 0.4 h -0.4 v 3.2 h 0.4 v 0.4 h 3.6 z" />
      </g>
    </g>
    <g
       aria-label="please SCrape Media"
       transform="matrix(18.514768,0,0,19.230133,782.02005,88.866348)"
       id="text7648"
       style="font-size:5.33333px;font-family:Pixeboy;-inkscape-font-specification:Pixeboy;white-space:pre;shape-inside:url(#rect7650);display:inline;fill:#ffffff;stroke-width:0.0113943;stroke-linecap:round;stroke-miterlimit:4.5;paint-order:fill markers stroke">
      <path
         d="m 5.1490873,58.345055 v 0 h 0.2656249 v 0.265625 0.265625 0.268229 0.265625 H 5.1490873 v 0.265624 h -0.268229 v 0.268229 H 4.6152335 4.3496086 4.0813796 3.8157548 v 0.265625 0.268229 0.265625 H 3.5501299 3.2819009 V 60.477866 60.209637 59.944012 59.675783 59.410159 59.144534 58.876305 58.61068 58.345055 58.076826 h 0.268229 0.2656249 0.2656248 0.268229 0.2656249 0.2656248 0.268229 z m -0.5338538,1.065104 v 0 H 4.8808583 V 59.144534 58.876305 58.61068 H 4.6152335 4.3496086 4.0813796 3.8157548 v 0.265625 0.268229 0.265625 h 0.2656248 0.268229 z"
         id="path17201" />
      <path
         d="m 7.6438775,59.944012 v 0 h 0.268229 v 0.265625 0.268229 0.265625 H 7.6438775 7.3782526 7.1100236 6.8443988 6.5787739 6.3105449 6.0449201 5.7792953 V 60.477866 60.209637 59.944012 59.675783 59.410159 59.144534 58.876305 58.61068 58.345055 58.076826 h 0.2656248 0.2656248 v 0.268229 0.265625 0.265625 0.268229 0.265625 0.265624 0.268229 0.265625 h 0.268229 0.2656249 0.2656248 0.268229 v -0.265625 z"
         id="path17203" />
      <path
         d="m 10.143876,58.074222 v 0 h 0.265625 v 0.268229 0.265625 H 10.143876 9.875647 9.6100221 9.3417931 9.0761683 8.8105434 v 0.268229 0.265625 h 0.2656249 0.2656248 0.268229 0.2656249 0.268229 v 0.265624 H 9.875647 v 0.268229 H 9.6100221 9.3417931 9.0761683 8.8105434 v 0.265625 0.265625 h 0.2656249 0.2656248 0.268229 0.2656249 0.268229 0.265625 v 0.268229 0.265625 H 10.143876 9.875647 9.6100221 9.3417931 9.0761683 8.8105434 8.5423144 8.2766896 V 60.475262 60.207033 59.941408 59.675783 59.407554 59.14193 58.876305 58.608076 58.342451 58.074222 h 0.2656248 0.268229 0.2656249 0.2656248 0.268229 0.2656249 z"
         id="path17205" />
      <path
         d="m 12.64127,58.61068 v 0 h 0.265625 v 0.268229 0.265625 0.265625 0.268229 0.265624 0.265625 0.268229 0.265625 H 12.64127 12.375645 v -0.265625 -0.268229 -0.265625 h -0.268229 -0.265625 -0.268229 -0.265624 v 0.265625 0.268229 0.265625 H 11.042313 10.774084 V 60.477866 60.209637 59.944012 59.678388 59.410159 59.144534 58.878909 58.61068 h 0.268229 v -0.265625 h 0.265625 v -0.268229 h 0.265624 0.268229 0.265625 0.268229 v 0.268229 h 0.265625 z m -0.263021,0.53125 v 0 -0.265625 H 12.11002 v -0.268229 h -0.265624 -0.268229 v 0.268229 h -0.265625 v 0.265625 0.265624 h 0.265625 0.268229 0.265624 0.268229 z"
         id="path17207" />
      <path
         d="m 15.13606,58.345055 v 0 h 0.268229 v 0.265625 0.265625 H 15.13606 14.870436 V 58.61068 h -0.265625 -0.268229 -0.265625 -0.265625 v 0.265625 0.268229 h 0.265625 0.265625 0.268229 0.265625 0.265624 v 0.265625 h 0.268229 v 0.265624 0.268229 0.265625 0.265625 H 15.13606 v 0.268229 h -0.265624 -0.265625 -0.268229 -0.265625 -0.265625 -0.268229 v -0.268229 h -0.265625 v -0.265625 -0.265625 h 0.265625 0.268229 v 0.265625 h 0.265625 0.265625 0.268229 0.265625 V 59.944012 59.675783 H 14.604811 14.336582 14.070957 13.805332 V 59.410159 H 13.537103 V 59.144534 H 13.271478 V 58.876305 58.61068 58.345055 h 0.265625 v -0.268229 h 0.268229 0.265625 0.265625 0.268229 0.265625 0.265624 z"
         id="path17209" />
      <path
         d="m 17.636059,58.074222 v 0 h 0.265625 v 0.268229 0.265625 H 17.636059 17.36783 17.102205 16.833976 16.568351 16.302727 v 0.268229 0.265625 h 0.265624 0.265625 0.268229 0.265625 0.268229 v 0.265624 H 17.36783 v 0.268229 h -0.265625 -0.268229 -0.265625 -0.265624 v 0.265625 0.265625 h 0.265624 0.265625 0.268229 0.265625 0.268229 0.265625 v 0.268229 0.265625 H 17.636059 17.36783 17.102205 16.833976 16.568351 16.302727 16.034498 15.768873 V 60.475262 60.207033 59.941408 59.675783 59.407554 59.14193 58.876305 58.608076 58.342451 58.074222 h 0.265625 0.268229 0.265624 0.265625 0.268229 0.265625 z"
         id="path17211" />
      <path
         d="m 5.1464832,65.011719 v 0 h 0.268229 v 0.265625 0.265625 H 5.1464832 4.8808583 V 65.277344 H 4.6152335 4.3470045 4.0813796 3.8157548 v 0.265625 0.268229 h 0.2656248 0.2656249 0.268229 0.2656248 0.2656249 v 0.265625 h 0.268229 v 0.265625 0.268229 0.265624 0.265625 h -0.268229 v 0.268229 H 4.8808583 4.6152335 4.3470045 4.0813796 3.8157548 3.5475258 V 67.141926 H 3.2819009 v -0.265625 -0.265624 h 0.2656249 0.268229 v 0.265624 h 0.2656248 0.2656249 0.268229 0.2656248 V 66.610677 66.342448 H 4.6152335 4.3470045 4.0813796 3.8157548 V 66.076823 H 3.5475258 V 65.811198 H 3.2819009 V 65.542969 65.277344 65.011719 H 3.5475258 V 64.74349 h 0.268229 0.2656248 0.2656249 0.268229 0.2656248 0.2656249 z"
         id="path17213" />
      <path
         d="m 7.6464816,65.009115 v 0 h 0.2656249 v 0.265625 0.268229 H 7.6464816 7.3782526 V 65.27474 H 7.1126278 6.847003 6.5787739 6.3131491 v 0.268229 0.265625 0.265625 0.268229 0.265624 0.265625 H 6.5787739 6.847003 7.1126278 7.3782526 v -0.265625 h 0.268229 0.2656249 v 0.265625 0.268229 H 7.6464816 v 0.265625 H 7.3782526 7.1126278 6.847003 6.5787739 6.3131491 6.0475243 V 67.141926 H 5.7792953 V 66.873697 66.608072 66.342448 66.074219 65.808594 65.542969 65.27474 65.009115 h 0.268229 v -0.268229 h 0.2656248 0.2656248 0.2682291 0.2656248 0.2656248 0.268229 z"
         id="path17215" />
      <path
         d="m 10.143876,65.011719 v 0 h 0.265625 v 0.265625 0.265625 0.268229 0.265625 h -0.265625 v 0.265625 H 9.875647 v 0.268229 h 0.268229 v 0.265624 h 0.265625 v 0.265625 0.268229 H 10.143876 9.875647 V 67.141926 H 9.6100221 V 66.876301 H 9.3417931 V 66.610677 H 9.0761683 8.8105434 v 0.265624 0.265625 0.268229 H 8.5423144 8.2766896 V 67.141926 66.876301 66.610677 66.342448 66.076823 65.811198 65.542969 65.277344 65.011719 64.74349 h 0.2656248 0.268229 0.2656249 0.2656248 0.268229 0.2656249 0.268229 z m -0.5338539,1.065104 v 0 H 9.875647 V 65.811198 65.542969 65.277344 H 9.6100221 9.3417931 9.0761683 8.8105434 v 0.265625 0.268229 0.265625 h 0.2656249 0.2656248 z"
         id="path17217" />
      <path
         d="m 12.64127,65.277344 v 0 h 0.265625 v 0.268229 0.265625 0.265625 0.268229 0.265625 0.265624 0.268229 0.265625 H 12.64127 12.375645 V 67.14453 66.876301 66.610677 h -0.268229 -0.265625 -0.268229 -0.265624 v 0.265624 0.268229 0.265625 H 11.042313 10.774084 V 67.14453 66.876301 66.610677 66.345052 66.076823 65.811198 65.545573 65.277344 h 0.268229 v -0.265625 h 0.265625 V 64.74349 h 0.265624 0.268229 0.265625 0.268229 v 0.268229 h 0.265625 z m -0.263021,0.53125 v 0 -0.265625 H 12.11002 V 65.27474 h -0.265624 -0.268229 v 0.268229 h -0.265625 v 0.265625 0.265625 h 0.265625 0.268229 0.265624 0.268229 z"
         id="path17219" />
      <path
         d="m 15.138665,65.011719 v 0 h 0.265624 v 0.265625 0.265625 0.268229 0.265625 h -0.265624 v 0.265625 h -0.268229 v 0.268229 h -0.265625 -0.265625 -0.268229 -0.265625 v 0.265624 0.268229 0.265625 H 13.539707 13.271478 V 67.14453 66.876301 66.610677 66.342448 66.076823 65.811198 65.542969 65.277344 65.011719 64.74349 h 0.268229 0.265625 0.265625 0.268229 0.265625 0.265625 0.268229 z m -0.533854,1.065104 v 0 h 0.265625 v -0.265625 -0.268229 -0.265625 h -0.265625 -0.265625 -0.268229 -0.265625 v 0.265625 0.268229 0.265625 h 0.265625 0.268229 z"
         id="path17221" />
      <path
         d="m 17.636059,64.740886 v 0 h 0.265625 v 0.268229 0.265625 H 17.636059 17.36783 17.102205 16.833976 16.568351 16.302727 v 0.268229 0.265625 h 0.265624 0.265625 0.268229 0.265625 0.268229 v 0.265625 H 17.36783 v 0.268229 h -0.265625 -0.268229 -0.265625 -0.265624 v 0.265624 0.265625 h 0.265624 0.265625 0.268229 0.265625 0.268229 0.265625 v 0.268229 0.265625 H 17.636059 17.36783 17.102205 16.833976 16.568351 16.302727 16.034498 15.768873 V 67.141926 66.873697 66.608072 66.342448 66.074219 65.808594 65.542969 65.27474 65.009115 64.740886 h 0.265625 0.268229 0.265624 0.265625 0.268229 0.265625 z"
         id="path17223" />
      <path
         d="m 21.021474,64.74349 v 0 h 0.265624 v 0.268229 0.265625 0.265625 0.268229 0.265625 0.265625 0.268229 0.265624 0.268229 0.265625 H 21.021474 20.755849 V 67.14453 66.876301 66.610677 66.342448 66.076823 65.811198 65.542969 H 20.48762 v 0.268229 0.265625 0.265625 0.268229 0.265624 0.268229 H 20.221995 19.95637 v -0.268229 -0.265624 -0.268229 -0.265625 -0.265625 -0.268229 h -0.268229 v 0.268229 0.265625 0.265625 0.268229 0.265624 0.268229 0.265625 H 19.422516 19.156891 V 67.14453 66.876301 66.610677 66.342448 66.076823 65.811198 65.542969 65.277344 65.011719 64.74349 h 0.265625 0.265625 v 0.268229 h 0.268229 v 0.265625 h 0.265625 0.265625 v -0.265625 h 0.268229 V 64.74349 Z"
         id="path17225" />
      <path
         d="m 23.518867,64.740886 v 0 h 0.265625 v 0.268229 0.265625 h -0.265625 -0.268229 -0.265625 -0.268229 -0.265625 -0.265625 v 0.268229 0.265625 h 0.265625 0.265625 0.268229 0.265625 0.268229 v 0.265625 h -0.268229 v 0.268229 h -0.265625 -0.268229 -0.265625 -0.265625 v 0.265624 0.265625 h 0.265625 0.265625 0.268229 0.265625 0.268229 0.265625 v 0.268229 0.265625 H 23.518867 23.250638 22.985013 22.716784 22.451159 22.185534 21.917305 21.651681 V 67.141926 66.873697 66.608072 66.342448 66.074219 65.808594 65.542969 65.27474 65.009115 64.740886 h 0.265624 0.268229 0.265625 0.265625 0.268229 0.265625 z"
         id="path17227" />
      <path
         d="m 26.016261,65.27474 v 0 h 0.265625 v 0.268229 0.265625 0.265625 0.268229 0.265624 0.265625 h -0.265625 v 0.268229 h -0.268229 v 0.265625 H 25.482408 25.216783 24.948554 24.682929 24.417304 24.149075 V 67.141926 66.873697 66.608072 66.342448 66.074219 65.808594 65.542969 65.27474 65.009115 64.740886 h 0.268229 0.265625 0.265625 0.268229 0.265625 0.265624 v 0.268229 h 0.268229 z m -0.268229,0.268229 v 0 -0.268229 h -0.265624 -0.265625 -0.268229 -0.265625 v 0.268229 0.265625 0.265625 0.268229 0.265624 0.265625 h 0.265625 0.268229 0.265625 0.265624 v -0.265625 -0.265624 -0.268229 -0.265625 z"
         id="path17229" />
      <path
         d="m 28.513656,64.740886 v 0 0.315104 0.21875 h -0.268229 -0.265625 v 0.268229 0.265625 0.265625 0.268229 0.265624 0.265625 h 0.265625 0.268229 v 0.533854 h -0.268229 -0.265625 -0.265625 -0.268229 -0.265625 -0.268229 v -0.533854 h 0.268229 0.265625 V 66.608072 66.342448 66.074219 65.808594 65.542969 65.27474 h -0.265625 -0.268229 v -0.533854 h 0.268229 0.265625 0.268229 0.265625 0.265625 z m 0,0 v 0 h 0.265625 v 0.268229 0.265625 H 28.513656 28.245427 27.979802 27.714177 27.445948 27.180323 26.914699 26.64647 v -0.265625 -0.268229 h 0.268229 0.265624 0.265625 0.268229 0.265625 0.265625 z m 0,2.135415 v 0 h 0.265625 v 0.265625 0.265625 H 28.513656 28.245427 27.979802 27.714177 27.445948 27.180323 26.914699 26.64647 v -0.265625 -0.265625 h 0.268229 0.265624 0.265625 0.268229 0.265625 0.265625 z"
         id="path17231" />
      <path
         d="m 31.011051,65.277344 v 0 h 0.265624 v 0.268229 0.265625 0.265625 0.268229 0.265625 0.265624 0.268229 0.265625 H 31.011051 30.745426 V 67.14453 66.876301 66.610677 h -0.268229 -0.265625 -0.268229 -0.265625 v 0.265624 0.268229 0.265625 H 29.412093 29.143864 V 67.14453 66.876301 66.610677 66.345052 66.076823 65.811198 65.545573 65.277344 h 0.268229 v -0.265625 h 0.265625 V 64.74349 h 0.265625 0.268229 0.265625 0.268229 v 0.268229 h 0.265625 z m -0.263021,0.53125 v 0 -0.265625 H 30.479801 V 65.27474 h -0.265625 -0.268229 v 0.268229 h -0.265625 v 0.265625 0.265625 h 0.265625 0.268229 0.265625 0.268229 z"
         id="path17233" />
    </g>
  </g>
</svg>
