<?xml version="1.0" encoding="UTF-8" standalone="no"?>
<svg
   id="SD1-2"
   data-name="SD1"
   viewBox="0 0 54.5 72.5"
   version="1.1"
   sodipodi:docname="logoe.svg"
   inkscape:version="1.2.2 (732a01da63, 2022-12-09)"
   xmlns:inkscape="http://www.inkscape.org/namespaces/inkscape"
   xmlns:sodipodi="http://sodipodi.sourceforge.net/DTD/sodipodi-0.dtd"
   xmlns:xlink="http://www.w3.org/1999/xlink"
   xmlns="http://www.w3.org/2000/svg"
   xmlns:svg="http://www.w3.org/2000/svg"
   xmlns:serif="http://www.serif.com/">
  <sodipodi:namedview
     id="namedview3743"
     pagecolor="#ffffff"
     bordercolor="#111111"
     borderopacity="1"
     inkscape:showpageshadow="0"
     inkscape:pageopacity="0"
     inkscape:pagecheckerboard="1"
     inkscape:deskcolor="#d1d1d1"
     showgrid="false"
     inkscape:zoom="11.434483"
     inkscape:cx="7.2587455"
     inkscape:cy="36.556092"
     inkscape:window-width="1920"
     inkscape:window-height="1009"
     inkscape:window-x="-8"
     inkscape:window-y="-8"
     inkscape:window-maximized="1"
     inkscape:current-layer="g5051" />
  <defs
     id="defs3718">
    <rect
       x="3.0998333"
       y="54.746683"
       width="29.35784"
       height="12.85585"
       id="rect7650" />
    <inkscape:path-effect
       effect="perspective-envelope"
       up_left_point="5.0906918,44.59069"
       up_right_point="52.509187,36.533196"
       down_left_point="5.1143495,52.238186"
       down_right_point="52.53266,44.121059"
       id="path-effect7594"
       is_visible="true"
       lpeversion="1"
       deform_type="perspective"
       horizontal_mirror="false"
       vertical_mirror="false"
       overflow_perspective="false" />
    <linearGradient
       inkscape:collect="always"
       id="linearGradient7568">
      <stop
         style="stop-color:#c758e6;stop-opacity:1;"
         offset="0"
         id="stop7564" />
      <stop
         style="stop-color:#11ffff;stop-opacity:1;"
         offset="1"
         id="stop7566" />
    </linearGradient>
    <linearGradient
       inkscape:collect="always"
       id="linearGradient7552">
      <stop
         style="stop-color:#c758e6;stop-opacity:1;"
         offset="0"
         id="stop7548" />
      <stop
         style="stop-color:#1b9fff;stop-opacity:1;"
         offset="1"
         id="stop7550" />
    </linearGradient>
    <clipPath
       id="clippath">
      <circle
         cx="43.54"
         cy="63.59"
         r="1.36"
         class="cls-4"
         id="circle3713" />
    </clipPath>
    <style
       id="style3716">.cls-4{fill:#fff;stroke-width:0}</style>
    <rect
       x="278.83817"
       y="912.99585"
       width="462.9465"
       height="110.52244"
       id="rect4646" />
    <rect
       x="278.83817"
       y="912.99585"
       width="462.9465"
       height="110.52244"
       id="rect4646-3" />
    <linearGradient
       inkscape:collect="always"
       xlink:href="#linearGradient7552"
       id="linearGradient7554"
       x1="3.1"
       y1="22.923445"
       x2="51.33"
       y2="22.923445"
       gradientUnits="userSpaceOnUse" />
    <linearGradient
       inkscape:collect="always"
       xlink:href="#linearGradient7568"
       id="linearGradient7570"
       x1="15.936483"
       y1="20.374577"
       x2="29.638157"
       y2="20.374577"
       gradientUnits="userSpaceOnUse" />
  </defs>
  <path
     d="M-.04 0h54.5v72.5H-.04z"
     style="stroke-width:0;fill:#0d0f18"
     id="path3720" />
  <g
     id="g5051"
     transform="matrix(1.0165793,0.00859987,-0.00314481,1.0004312,-1.9352124,-2.2102491)"
     style="stroke-width:0.991585">
    <g
       id="g7592"
       inkscape:path-effect="#path-effect7594"
       transform="translate(0.00365524,1.0703753)">
      <g
         aria-label="Game Media"
         transform="translate(-273.00315,-875.2474)"
         id="text4644"
         style="font-size:8px;font-family:'Upheaval TT (BRK)';-inkscape-font-specification:'Upheaval TT (BRK)';word-spacing:0px;white-space:pre;shape-inside:url(#rect4646);fill:#1b9fff;stroke-width:13.6792;stroke-linecap:round;stroke-miterlimit:4.5;paint-order:fill markers stroke">
        <path
           d="m 282.18505,922.13188 0.4079,-0.0695 -0.004,-1.32765 -0.40789,0.0694 -0.001,-0.33193 -2.0403,0.34714 0.002,0.66409 0.81628,-0.13898 0.002,0.66401 -1.2245,0.2086 -0.006,-1.9924 2.85642,-0.48569 -0.002,-0.66382 -4.08142,0.69353 0.001,0.33213 -0.40844,0.0694 0.008,2.65725 0.40844,-0.0696 0.001,0.33213 3.67352,-0.62622 z"
           id="path4999"
           style="stroke-width:13.6792"
           inkscape:original-d="m 282.83789,920.26276 h 0.4 v -1.6 h -0.4 v -0.4 h -2 v 0.8 h 0.8 v 0.8 h -1.2 v -2.4 h 2.8 v -0.8 h -4 v 0.4 h -0.4 v 3.2 h 0.4 v 0.4 h 3.6 z" />
        <path
           d="m 284.62852,920.71955 1.22254,-0.20814 0.004,1.32693 1.62929,-0.27774 -0.009,-2.9848 -0.40724,0.0692 -0.001,-0.33167 -1.22205,0.20766 -2.44557,0.41555 0.001,0.33187 -0.40779,0.0693 0.009,2.987 1.63081,-0.278 z m -0.004,-1.32721 1.22253,-0.20787 0.002,0.66347 -1.22254,0.20801 z"
           id="path5001"
           style="stroke-width:13.6792"
           inkscape:original-d="m 285.23789,919.06276 h 1.2 v 1.6 h 1.6 v -3.6 h -0.4 v -0.4 h -1.2 -2.4 v 0.4 h -0.4 v 3.6 h 1.6 z m 0,-1.6 h 1.2 v 0.8 h -1.2 z" />
        <path
           d="m 289.5147,919.55596 0.40691,-0.0693 0.001,0.33151 0.40686,-0.0693 0.001,0.33149 0.4068,-0.0693 -0.001,-0.33147 0.40675,-0.0693 -0.001,-0.33144 0.40669,-0.0692 0.005,1.65711 1.62623,-0.27722 -0.0102,-3.31334 -1.62623,0.27634 0.001,0.33142 -0.40669,0.0691 0.001,0.33144 -0.40674,0.0692 0.001,0.33146 -0.4068,0.0692 -0.001,-0.33149 -0.40685,0.0692 -0.001,-0.33151 -0.40691,0.0692 -0.001,-0.33154 -1.62819,0.27667 0.0103,3.31623 1.62819,-0.27756 z"
           id="path5003"
           style="stroke-width:13.6792"
           inkscape:original-d="m 290.0379,918.66276 h 0.4 v 0.4 h 0.4 v 0.4 h 0.4 v -0.4 h 0.4 v -0.4 h 0.4 v 2 h 1.6 v -4 h -1.6 v 0.4 h -0.4 v 0.4 h -0.4 v 0.4 h -0.4 v -0.4 h -0.4 v -0.4 h -0.4 v -0.4 h -1.6 v 4 h 1.6 z" />
        <path
           d="m 293.99285,920.45112 4.06067,-0.69222 -0.002,-0.66214 -2.8419,0.48415 -0.002,-0.66245 1.21828,-0.20741 -0.002,-0.66231 -1.21828,0.20728 -0.002,-0.66245 2.8419,-0.48321 -0.002,-0.66214 -4.06068,0.69 0.001,0.33129 -0.40637,0.0691 0.008,2.65049 0.40637,-0.0693 z"
           id="path5005"
           style="stroke-width:13.6792"
           inkscape:original-d="m 294.4379,920.66276 h 4 v -0.8 h -2.8 v -0.8 h 1.2 v -0.8 h -1.2 v -0.8 h 2.8 v -0.8 h -4 v 0.4 h -0.4 v 3.2 h 0.4 z" />
        <path
           d="m 302.91404,917.27544 0.40512,-0.0689 0.001,0.33078 0.40506,-0.069 0.001,0.33076 0.40501,-0.069 -0.001,-0.33074 0.40496,-0.0689 -0.001,-0.33072 0.4049,-0.0689 0.005,1.65346 1.61906,-0.276 -0.0102,-3.30603 -1.61906,0.27511 0.001,0.3307 -0.4049,0.0688 0.001,0.33071 -0.40496,0.0689 0.001,0.33073 -0.405,0.0689 -0.001,-0.33076 -0.40506,0.0689 -0.001,-0.33078 -0.40512,0.0689 -0.001,-0.3308 -1.62102,0.27544 0.0102,3.30891 1.62101,-0.27634 z"
           id="path5007"
           style="stroke-width:13.6792"
           inkscape:original-d="m 303.23791,918.66276 h 0.4 v 0.4 h 0.4 v 0.4 h 0.4 v -0.4 h 0.4 v -0.4 h 0.4 v 2 h 1.6 v -4 h -1.6 v 0.4 h -0.4 v 0.4 h -0.4 v 0.4 h -0.4 v -0.4 h -0.4 v -0.4 h -0.4 v -0.4 h -1.6 v 4 h 1.6 z" />
        <path
           d="m 307.37247,918.1703 4.04278,-0.68917 -0.002,-0.66068 -2.82937,0.48202 -0.002,-0.66099 1.21292,-0.2065 -0.002,-0.66085 -1.21291,0.20637 -0.002,-0.66099 2.82938,-0.48108 -0.002,-0.66068 -4.04278,0.68696 0.001,0.33056 -0.40458,0.0688 0.008,2.64465 0.40458,-0.0689 z"
           id="path5009"
           style="stroke-width:13.6792"
           inkscape:original-d="m 307.63792,920.66276 h 4 v -0.8 h -2.8 v -0.8 h 1.2 v -0.8 h -1.2 v -0.8 h 2.8 v -0.8 h -4 v 0.4 h -0.4 v 3.2 h 0.4 z" />
        <path
           d="m 315.45161,916.46276 0.40344,-0.0688 -0.001,-0.3301 0.40338,-0.0687 -0.006,-1.98044 -0.40339,0.0686 -0.001,-0.33009 -0.40344,0.0686 -0.001,-0.33011 -0.80705,0.13713 -0.4036,0.0686 -2.42276,0.41169 0.0102,3.30315 3.6334,-0.61938 z m -1.21678,-1.77479 0.4036,-0.0686 0.004,1.32064 -0.4036,0.0687 0.001,0.33018 -0.80737,0.13754 -0.006,-1.98136 0.80737,-0.13728 z"
           id="path5011"
           style="stroke-width:13.6792"
           inkscape:original-d="m 315.63792,920.26276 h 0.4 v -0.4 h 0.4 v -2.4 h -0.4 v -0.4 h -0.4 v -0.4 h -0.8 -0.4 -2.4 v 4 h 3.6 z m -1.2,-2.4 h 0.4 v 1.6 h -0.4 v 0.4 h -0.8 v -2.4 h 0.8 z" />
        <path
           d="m 316.65462,913.94617 1.20968,-0.20568 0.006,1.97991 -1.20968,0.20608 0.002,0.6601 4.03038,-0.68705 -0.002,-0.65967 -1.20855,0.20589 -0.006,-1.97938 1.20855,-0.20549 -0.002,-0.65966 -4.03039,0.68485 z"
           id="path5013"
           style="stroke-width:13.6792"
           inkscape:original-d="m 316.83792,917.46276 h 1.2 v 2.4 h -1.2 v 0.8 h 4 v -0.8 h -1.2 v -2.4 h 1.2 v -0.8 h -4 z" />
        <path
           d="m 322.70226,914.23746 1.20726,-0.20554 0.004,1.31862 1.60893,-0.27427 -0.009,-2.96611 -0.40216,0.0684 -0.001,-0.32959 -1.20677,0.20506 -2.41501,0.41037 0.001,0.32978 -0.40269,0.0684 0.009,2.96828 1.61043,-0.27453 z m -0.004,-1.31889 1.20726,-0.20527 0.002,0.65931 -1.20726,0.20541 z"
           id="path5015"
           style="stroke-width:13.6792"
           inkscape:original-d="m 322.83792,919.06276 h 1.2 v 1.6 h 1.6 v -3.6 h -0.4 v -0.4 h -1.2 -2.4 v 0.4 h -0.4 v 3.6 h 1.6 z m 0,-1.6 h 1.2 v 0.8 h -1.2 z" />
      </g>
      <g
         aria-label="Missing"
         transform="translate(-273.00315,-870.03791)"
         id="text4644-3"
         style="font-size:8px;font-family:'Upheaval TT (BRK)';-inkscape-font-specification:'Upheaval TT (BRK)';word-spacing:0px;white-space:pre;shape-inside:url(#rect4646-3);fill:#1b9fff;stroke-width:13.6792;stroke-linecap:round;stroke-miterlimit:4.5;paint-order:fill markers stroke">
        <path
           d="m 279.7458,920.33614 0.40823,-0.0698 0.001,0.33205 0.40817,-0.0698 0.001,0.33202 0.40811,-0.0698 -0.001,-0.332 0.40806,-0.0698 -0.001,-0.33198 0.408,-0.0697 0.005,1.65979 1.63147,-0.27928 -0.0103,-3.31868 -1.63146,0.27839 0.001,0.33196 -0.408,0.0696 0.001,0.33198 -0.40806,0.0697 0.001,0.332 -0.40811,0.0697 -0.001,-0.33203 -0.40817,0.0697 -0.001,-0.33205 -0.40823,0.0697 -0.001,-0.33207 -1.63345,0.27872 0.0103,3.32158 1.63344,-0.27962 z"
           id="path5018"
           style="stroke-width:13.6792"
           inkscape:original-d="m 280.43789,918.66276 h 0.4 v 0.4 h 0.4 v 0.4 h 0.4 v -0.4 h 0.4 v -0.4 h 0.4 v 2 h 1.6 v -4 h -1.6 v 0.4 h -0.4 v 0.4 h -0.4 v 0.4 h -0.4 v -0.4 h -0.4 v -0.4 h -0.4 v -0.4 h -1.6 v 4 h 1.6 z" />
        <path
           d="m 283.8225,918.64334 1.22286,-0.2088 0.006,1.99067 -1.22286,0.2092 0.002,0.66369 4.07429,-0.69744 -0.002,-0.66325 -1.22171,0.209 -0.006,-1.99013 1.22171,-0.2086 -0.002,-0.66325 -4.07429,0.69522 z"
           id="path5020"
           style="stroke-width:13.6792"
           inkscape:original-d="m 284.4379,917.46276 h 1.2 v 2.4 h -1.2 v 0.8 h 4 v -0.8 h -1.2 v -2.4 h 1.2 v -0.8 h -4 z" />
        <path
           d="m 288.31212,920.53097 4.06828,-0.69642 -0.001,-0.33137 0.40653,-0.0696 -0.004,-1.32543 -0.40653,0.0695 -0.001,-0.33137 -1.21991,0.20842 -1.22041,0.20851 -0.002,-0.66302 2.84685,-0.48608 -0.002,-0.66272 -4.06774,0.6941 0.001,0.33158 -0.40707,0.0695 0.004,1.32641 0.40707,-0.0696 0.001,0.33158 2.4413,-0.41737 0.002,0.66289 -2.84837,0.48728 z"
           id="path5022"
           style="stroke-width:13.6792"
           inkscape:original-d="m 288.83789,920.66276 h 4 v -0.4 h 0.4 v -1.6 h -0.4 v -0.4 h -1.2 -1.2 v -0.8 h 2.8 v -0.8 h -4 v 0.4 h -0.4 v 1.6 h 0.4 v 0.4 h 2.4 v 0.8 h -2.8 z" />
        <path
           d="m 293.19341,919.69538 4.06174,-0.69529 -0.001,-0.33111 0.40587,-0.0695 -0.004,-1.32436 -0.40588,0.0694 -0.001,-0.33111 -1.21796,0.20809 -1.21844,0.20817 -0.002,-0.66249 2.84227,-0.4853 -0.002,-0.66218 -4.0612,0.69299 0.001,0.33131 -0.40642,0.0694 0.004,1.32533 0.40642,-0.0695 0.001,0.33132 2.43737,-0.4167 0.002,0.66235 -2.84379,0.4865 z"
           id="path5024"
           style="stroke-width:13.6792"
           inkscape:original-d="m 293.63789,920.66276 h 4 v -0.4 h 0.4 v -1.6 h -0.4 v -0.4 h -1.2 -1.2 v -0.8 h 2.8 v -0.8 h -4 v 0.4 h -0.4 v 1.6 h 0.4 v 0.4 h 2.4 v 0.8 h -2.8 z" />
        <path
           d="m 298.05866,916.2126 1.21714,-0.20782 0.006,1.98601 -1.21714,0.20821 0.002,0.66214 4.05522,-0.69418 -0.002,-0.66169 -1.216,0.20802 -0.006,-1.98547 1.21599,-0.20763 -0.002,-0.66169 -4.05523,0.69196 z"
           id="path5026"
           style="stroke-width:13.6792"
           inkscape:original-d="m 298.4379,917.46276 h 1.2 v 2.4 h -1.2 v 0.8 h 4 v -0.8 h -1.2 v -2.4 h 1.2 v -0.8 h -4 z" />
        <path
           d="m 304.14253,916.16654 0.40496,-0.0692 0.001,0.33072 0.4049,-0.0692 0.001,0.33069 0.40485,-0.0692 0.003,0.99201 1.61883,-0.27712 -0.0102,-3.3058 -1.61884,0.27623 0.003,0.992 -0.40485,0.0692 -0.001,-0.33069 -0.4049,0.0691 -0.001,-0.33071 -0.40496,0.0691 -0.001,-0.33073 -1.62036,0.27649 0.0102,3.30824 1.62035,-0.27738 z"
           id="path5028"
           style="stroke-width:13.6792"
           inkscape:original-d="m 304.43789,918.66276 h 0.4 v 0.4 h 0.4 v 0.4 h 0.4 v 1.2 h 1.6 v -4 h -1.6 v 1.2 h -0.4 v -0.4 h -0.4 v -0.4 h -0.4 v -0.4 h -1.6 v 4 h 1.6 z" />
        <path
           d="m 311.42751,916.24353 0.40398,-0.0691 -0.004,-1.32126 -0.40398,0.069 -0.001,-0.33033 -2.02072,0.34524 0.002,0.6609 0.80845,-0.13822 0.002,0.66081 -1.21275,0.20747 -0.006,-1.98282 2.82899,-0.48304 -0.002,-0.66063 -4.04224,0.68975 0.001,0.33053 -0.40452,0.069 0.008,2.64447 0.40452,-0.0692 0.001,0.33053 3.63825,-0.6228 z"
           id="path5030"
           style="stroke-width:13.6792"
           inkscape:original-d="m 311.63789,920.26276 h 0.4 v -1.6 h -0.4 v -0.4 h -2 v 0.8 h 0.8 v 0.8 h -1.2 v -2.4 h 2.8 v -0.8 h -4 v 0.4 h -0.4 v 3.2 h 0.4 v 0.4 h 3.6 z" />
      </g>
    </g>
    <text
       xml:space="preserve"
       transform="matrix(0.98366493,-0.00845574,0.00309211,0.99954241,2.6424045,3.1009515)"
       id="text7648"
       style="font-style:normal;font-variant:normal;font-weight:normal;font-stretch:normal;font-size:5.33333px;font-family:Pixeboy;-inkscape-font-specification:Pixeboy;writing-mode:lr-tb;white-space:pre;shape-inside:url(#rect7650);fill:#ffffff;fill-opacity:1;stroke:none;stroke-width:0.215;stroke-linecap:round;stroke-miterlimit:4.5;stroke-dasharray:none;stroke-opacity:1;paint-order:fill markers stroke"><tspan
         x="3.0996094"
         y="60.740887"
         id="tspan9518">please </tspan><tspan
         x="3.0996094"
         y="67.407551"
         id="tspan9520">SCrape Media</tspan></text>
  </g>
  <path
     d="m48.05 68.05-1.32-.57-.02 1.44-1.12-.91-.41 1.39-.83-1.18-.77 1.22-.48-1.36-1.07.97-.1-1.44-1.29.65.29-1.41-1.41.27.66-1.28-1.44-.12.98-1.05-1.35-.5 1.23-.75-1.16-.85 1.38-.39-.89-1.13h1.44l-.56-1.33 1.39.38-.18-1.43 1.24.75.21-1.43.99 1.06.59-1.32.67 1.28.92-1.11.3 1.41 1.19-.81-.1 1.44 1.36-.47-.48 1.36 1.44-.08-.83 1.18 1.41.31-1.12.92 1.28.68-1.33.57 1.04 1-1.42.2.73 1.24-1.43-.19z"
     style="stroke-width:0;fill:#e4b523"
     id="path3722" />
  <path
     d="M43.54 66.31v-.98a1.8 1.8 0 0 0 1.26-.51c.16-.16.3-.36.39-.57s.14-.44.14-.67-.05-.46-.14-.67-.22-.41-.39-.57a1.77 1.77 0 0 0-1.26-.51v-.98c.72 0 1.42.29 1.93.8a2.724 2.724 0 0 1 0 3.86c-.51.51-1.2.8-1.93.8"
     class="cls-4"
     id="path3724"
     style="fill:#000000;fill-opacity:1" />
  <circle
     cx="43.54"
     cy="63.59"
     r="1.36"
     style="fill:#fff"
     id="circle3726" />
  <path
     d="M43.54 64.95c.75 0 1.36-.61 1.36-1.36s-.61-1.36-1.36-1.36-1.36.61-1.36 1.36.61 1.36 1.36 1.36"
     class="cls-4"
     style="clip-path:url(#clippath);fill:#000000;fill-opacity:1"
     clip-path="url(#clippath)"
     id="path3728" />
  <path
     d="M50.83 33.7 3.6 41.3V4.46h47.23z"
     style="fill:#000000;stroke:url(#linearGradient7554);stroke-miterlimit:10;fill-opacity:1"
     id="path3732" />
  <g
     transform="matrix(0.23021175,0,0,0.23021175,11.383352,4.3193615)"
     id="g5426"
     style="clip-rule:evenodd;fill-rule:evenodd;stroke-width:8.77915;stroke-linejoin:round;stroke-miterlimit:2">
        <g
   id="D"
   transform="matrix(-0.674885,0,0,-0.674885,223.747,109.037)"
   style="stroke-width:8.77915">
            <path
   d="m 172.54,-2.511 c 3.246,-3.246 6.838,-5.729 10.775,-7.449 3.936,-1.72 8.218,-2.58 12.845,-2.58 h 75.695 V 6.901 H 196.16 c -1.72,0 -3.337,0.321 -4.851,0.963 -1.514,0.642 -2.834,1.526 -3.961,2.653 -1.126,1.126 -2.011,2.447 -2.653,3.961 -0.642,1.514 -0.963,3.131 -0.963,4.851 v 77.026 c 0,1.599 0.352,3.143 1.054,4.633 0.703,1.49 1.63,2.81 2.78,3.961 1.151,1.151 2.471,2.078 3.961,2.78 1.49,0.703 3.035,1.054 4.633,1.054 h 75.695 v 19.441 H 196.16 c -2.301,0 -4.536,-0.242 -6.704,-0.726 -2.168,-0.485 -4.252,-1.169 -6.25,-2.054 -1.999,-0.884 -3.895,-1.944 -5.688,-3.179 -1.792,-1.236 -3.452,-2.592 -4.978,-4.07 -3.174,-3.077 -5.639,-6.62 -7.395,-10.629 -1.756,-4.01 -2.635,-8.34 -2.635,-12.992 V 21.11 c 0,-4.652 0.86,-8.94 2.58,-12.864 1.721,-3.925 4.204,-7.51 7.45,-10.757 z"
   style="fill:#ffffff;fill-rule:nonzero;stroke-width:8.77915"
   id="path5420" />

        </g>

        <g
   id="Left-Symbol"
   serif:id="Left Symbol"
   transform="matrix(0.494792,0,0,0.494792,6.66667,6.66667)"
   style="stroke-width:8.77915">
            
        </g>

    </g>
  <path
     d="m 17.211263,15.28138 h 9.084514 c 0.342008,0 0.654256,0.0408 0.936862,0.12372 0.282608,0.0828 0.537254,0.19524 0.764058,0.338288 0.226806,0.14316 0.42445,0.312846 0.593054,0.509412 0.1686,0.19644 0.308648,0.40933 0.42025,0.638414 0.1116,0.229206 0.19524,0.469332 0.251046,0.720377 0.0552,0.251046 0.0828,0.503892 0.0804,0.758538 0,0.259566 -0.0276,0.516612 -0.084,0.771258 -0.0552,0.254646 -0.13944,0.496572 -0.251046,0.725776 -0.1116,0.229206 -0.251646,0.440892 -0.42025,0.634936 -0.16848,0.19404 -0.365648,0.361928 -0.591134,0.503892 -0.225604,0.14184 -0.47965,0.252846 -0.762258,0.332888 -0.282486,0.0804 -0.594854,0.12 -0.936862,0.12 h -0.0396 l 3.274372,4.009294 h -2.637662 l -3.27436,-4.009294 h -5.446366 v 4.009294 h -2.124698 l -0.0036,-9.018967 c 0,-0.1746 0.0276,-0.333488 0.084,-0.476652 0.0552,-0.14304 0.13524,-0.266166 0.238326,-0.369248 0.1032,-0.1032 0.226206,-0.18252 0.369248,-0.238326 0.14316,-0.0552 0.301928,-0.084 0.476652,-0.084 z m 9.044398,4.231191 c 0.15768,0 0.295926,-0.0324 0.41473,-0.0984 0.1188,-0.066 0.218284,-0.15156 0.298326,-0.258246 0.0804,-0.1068 0.14004,-0.228606 0.18012,-0.365648 0.0396,-0.13704 0.0612,-0.277088 0.0624,-0.42025 0.0015,-0.14316 -0.018,-0.283208 -0.0564,-0.42025 -0.0384,-0.13704 -0.0972,-0.258966 -0.1764,-0.36565 -0.0792,-0.1068 -0.17832,-0.192839 -0.298326,-0.258365 -0.12,-0.066 -0.261366,-0.0984 -0.42385,-0.0984 h -8.0838 v 2.284769 z"
     style="white-space:pre;shape-inside:url(#rect752);clip-rule:evenodd;fill:url(#linearGradient7570);fill-opacity:1;fill-rule:evenodd;stroke-width:0.215;stroke-linejoin:round;stroke-miterlimit:2;paint-order:fill markers stroke;stroke:#000000;stroke-opacity:1;stroke-dasharray:none"
     id="path5606" />
</svg>
