<?xml version="1.0" encoding="UTF-8" standalone="no"?>
<!-- Created with Inkscape (http://www.inkscape.org/) -->

<svg
   width="1496"
   height="1077"
   viewBox="0 0 395.81666 284.95626"
   version="1.1"
   id="svg5"
   inkscape:version="1.2.2 (732a01da63, 2022-12-09)"
   xml:space="preserve"
   sodipodi:docname="logod.svg"
   xmlns:inkscape="http://www.inkscape.org/namespaces/inkscape"
   xmlns:sodipodi="http://sodipodi.sourceforge.net/DTD/sodipodi-0.dtd"
   xmlns:xlink="http://www.w3.org/1999/xlink"
   xmlns="http://www.w3.org/2000/svg"
   xmlns:svg="http://www.w3.org/2000/svg"><sodipodi:namedview
     id="namedview7"
     pagecolor="#000000"
     bordercolor="#111111"
     borderopacity="1"
     inkscape:showpageshadow="0"
     inkscape:pageopacity="0"
     inkscape:pagecheckerboard="1"
     inkscape:deskcolor="#d1d1d1"
     inkscape:document-units="mm"
     showgrid="false"
     inkscape:zoom="0.62760417"
     inkscape:cx="962.39004"
     inkscape:cy="522.62241"
     inkscape:window-width="1920"
     inkscape:window-height="1009"
     inkscape:window-x="-8"
     inkscape:window-y="-8"
     inkscape:window-maximized="1"
     inkscape:current-layer="layer1" /><defs
     id="defs2"><radialGradient
       id="j"
       gradientUnits="userSpaceOnUse"
       cy="685.84003"
       cx="-226.42999"
       gradientTransform="matrix(0,76.54,-54.57,0,37481,17713)"
       r="1"><stop
         offset="0"
         id="stop2" /><stop
         offset="1"
         id="stop4" /></radialGradient><rect
       x="234.75519"
       y="366.47302"
       width="884.8465"
       height="93.47718"
       id="rect2238" /><rect
       x="183.76762"
       y="280.43155"
       width="953.89209"
       height="133.84232"
       id="rect378" /><linearGradient
       id="linearGradient8947"
       x1="44.403999"
       x2="1324.4"
       y1="472.79001"
       y2="472.79001"
       gradientUnits="userSpaceOnUse"
       gradientTransform="matrix(0.52559796,0,0,0.52559796,324.69661,122.87582)"><stop
         id="stop8941"
         stop-color="#c957e6"
         offset="0" /><stop
         id="stop8943"
         stop-color="#1a9fff"
         offset="1" /></linearGradient><linearGradient
       id="_Linear1"
       x2="1"
       gradientTransform="matrix(282.08,0,0,150,0,75)"
       gradientUnits="userSpaceOnUse"><stop
         id="stop2-4"
         stop-color="#c957e6"
         offset="0" /><stop
         id="stop4-7"
         stop-color="#c957e6"
         offset=".01" /><stop
         id="stop6"
         stop-color="#1a9fff"
         offset=".9" /><stop
         id="stop8"
         stop-color="#1a9fff"
         offset="1" /></linearGradient><linearGradient
       id="linearGradient8947-8"
       x1="44.403999"
       x2="1324.4"
       y1="472.79001"
       y2="472.79001"
       gradientUnits="userSpaceOnUse"
       gradientTransform="matrix(0.59318279,0,0,0.59318279,278.67083,-201.29029)"><stop
         id="stop8941-7"
         stop-color="#c957e6"
         offset="0" /><stop
         id="stop8943-1"
         stop-color="#1a9fff"
         offset="1" /></linearGradient><linearGradient
       inkscape:collect="always"
       xlink:href="#_Linear1"
       id="linearGradient3653"
       gradientUnits="userSpaceOnUse"
       gradientTransform="matrix(282.08,0,0,150,0,75)"
       x2="1" /><linearGradient
       inkscape:collect="always"
       xlink:href="#linearGradient990"
       id="linearGradient992"
       x1="183.76758"
       y1="285.76498"
       x2="778.96771"
       y2="285.76498"
       gradientUnits="userSpaceOnUse" /><linearGradient
       inkscape:collect="always"
       id="linearGradient990"><stop
         style="stop-color:#c758e6;stop-opacity:1;"
         offset="0"
         id="stop986" /><stop
         style="stop-color:#1a9fff;stop-opacity:1;"
         offset="1"
         id="stop988" /></linearGradient><linearGradient
       inkscape:collect="always"
       xlink:href="#linearGradient2246"
       id="linearGradient2248"
       x1="234.75586"
       y1="411.806"
       x2="1069.9563"
       y2="411.806"
       gradientUnits="userSpaceOnUse" /><linearGradient
       inkscape:collect="always"
       id="linearGradient2246"><stop
         style="stop-color:#c857e6;stop-opacity:1;"
         offset="0"
         id="stop2242" /><stop
         style="stop-color:#1b9fff;stop-opacity:1;"
         offset="1"
         id="stop2244" /></linearGradient><linearGradient
       inkscape:collect="always"
       xlink:href="#linearGradient990"
       id="linearGradient5283"
       gradientUnits="userSpaceOnUse"
       x1="183.76758"
       y1="285.76498"
       x2="778.96771"
       y2="285.76498" /><linearGradient
       inkscape:collect="always"
       xlink:href="#linearGradient990"
       id="linearGradient5285"
       gradientUnits="userSpaceOnUse"
       x1="183.76758"
       y1="285.76498"
       x2="778.96771"
       y2="285.76498" /><linearGradient
       inkscape:collect="always"
       xlink:href="#linearGradient990"
       id="linearGradient5287"
       gradientUnits="userSpaceOnUse"
       x1="183.76758"
       y1="285.76498"
       x2="778.96771"
       y2="285.76498" /><linearGradient
       inkscape:collect="always"
       xlink:href="#linearGradient990"
       id="linearGradient5289"
       gradientUnits="userSpaceOnUse"
       x1="183.76758"
       y1="285.76498"
       x2="778.96771"
       y2="285.76498" /><linearGradient
       inkscape:collect="always"
       xlink:href="#linearGradient990"
       id="linearGradient5291"
       gradientUnits="userSpaceOnUse"
       x1="183.76758"
       y1="285.76498"
       x2="778.96771"
       y2="285.76498" /><linearGradient
       inkscape:collect="always"
       xlink:href="#linearGradient990"
       id="linearGradient5293"
       gradientUnits="userSpaceOnUse"
       x1="183.76758"
       y1="285.76498"
       x2="778.96771"
       y2="285.76498" /><linearGradient
       inkscape:collect="always"
       xlink:href="#linearGradient990"
       id="linearGradient5295"
       gradientUnits="userSpaceOnUse"
       x1="183.76758"
       y1="285.76498"
       x2="778.96771"
       y2="285.76498" /><linearGradient
       inkscape:collect="always"
       xlink:href="#linearGradient990"
       id="linearGradient5297"
       gradientUnits="userSpaceOnUse"
       x1="183.76758"
       y1="285.76498"
       x2="778.96771"
       y2="285.76498" /><linearGradient
       inkscape:collect="always"
       xlink:href="#linearGradient990"
       id="linearGradient5299"
       gradientUnits="userSpaceOnUse"
       x1="183.76758"
       y1="285.76498"
       x2="778.96771"
       y2="285.76498" /><linearGradient
       inkscape:collect="always"
       xlink:href="#linearGradient990"
       id="linearGradient5301"
       gradientUnits="userSpaceOnUse"
       x1="183.76758"
       y1="285.76498"
       x2="778.96771"
       y2="285.76498" /><linearGradient
       inkscape:collect="always"
       xlink:href="#linearGradient990"
       id="linearGradient5303"
       gradientUnits="userSpaceOnUse"
       x1="183.76758"
       y1="285.76498"
       x2="778.96771"
       y2="285.76498" /><linearGradient
       inkscape:collect="always"
       xlink:href="#linearGradient990"
       id="linearGradient5305"
       gradientUnits="userSpaceOnUse"
       x1="183.76758"
       y1="285.76498"
       x2="778.96771"
       y2="285.76498" /><linearGradient
       inkscape:collect="always"
       xlink:href="#linearGradient990"
       id="linearGradient5307"
       gradientUnits="userSpaceOnUse"
       x1="183.76758"
       y1="285.76498"
       x2="778.96771"
       y2="285.76498" /><linearGradient
       inkscape:collect="always"
       xlink:href="#linearGradient990"
       id="linearGradient5309"
       gradientUnits="userSpaceOnUse"
       x1="183.76758"
       y1="285.76498"
       x2="778.96771"
       y2="285.76498" /><linearGradient
       inkscape:collect="always"
       xlink:href="#linearGradient990"
       id="linearGradient5311"
       gradientUnits="userSpaceOnUse"
       x1="183.76758"
       y1="285.76498"
       x2="778.96771"
       y2="285.76498" /><linearGradient
       inkscape:collect="always"
       xlink:href="#linearGradient2246"
       id="linearGradient5313"
       gradientUnits="userSpaceOnUse"
       x1="234.75586"
       y1="411.806"
       x2="1069.9563"
       y2="411.806" /><linearGradient
       inkscape:collect="always"
       xlink:href="#linearGradient2246"
       id="linearGradient5315"
       gradientUnits="userSpaceOnUse"
       x1="234.75586"
       y1="411.806"
       x2="1069.9563"
       y2="411.806" /><linearGradient
       inkscape:collect="always"
       xlink:href="#linearGradient2246"
       id="linearGradient5317"
       gradientUnits="userSpaceOnUse"
       x1="234.75586"
       y1="411.806"
       x2="1069.9563"
       y2="411.806" /><linearGradient
       inkscape:collect="always"
       xlink:href="#linearGradient2246"
       id="linearGradient5319"
       gradientUnits="userSpaceOnUse"
       x1="234.75586"
       y1="411.806"
       x2="1069.9563"
       y2="411.806" /><linearGradient
       inkscape:collect="always"
       xlink:href="#linearGradient2246"
       id="linearGradient5321"
       gradientUnits="userSpaceOnUse"
       x1="234.75586"
       y1="411.806"
       x2="1069.9563"
       y2="411.806" /><linearGradient
       inkscape:collect="always"
       xlink:href="#linearGradient2246"
       id="linearGradient5323"
       gradientUnits="userSpaceOnUse"
       x1="234.75586"
       y1="411.806"
       x2="1069.9563"
       y2="411.806" /><linearGradient
       inkscape:collect="always"
       xlink:href="#linearGradient2246"
       id="linearGradient5325"
       gradientUnits="userSpaceOnUse"
       x1="234.75586"
       y1="411.806"
       x2="1069.9563"
       y2="411.806" /><linearGradient
       inkscape:collect="always"
       xlink:href="#linearGradient2246"
       id="linearGradient5327"
       gradientUnits="userSpaceOnUse"
       x1="234.75586"
       y1="411.806"
       x2="1069.9563"
       y2="411.806" /><linearGradient
       inkscape:collect="always"
       xlink:href="#linearGradient2246"
       id="linearGradient5329"
       gradientUnits="userSpaceOnUse"
       x1="234.75586"
       y1="411.806"
       x2="1069.9563"
       y2="411.806" /><linearGradient
       inkscape:collect="always"
       xlink:href="#linearGradient2246"
       id="linearGradient5331"
       gradientUnits="userSpaceOnUse"
       x1="234.75586"
       y1="411.806"
       x2="1069.9563"
       y2="411.806" /><linearGradient
       inkscape:collect="always"
       xlink:href="#linearGradient2246"
       id="linearGradient5333"
       gradientUnits="userSpaceOnUse"
       x1="234.75586"
       y1="411.806"
       x2="1069.9563"
       y2="411.806" /><linearGradient
       inkscape:collect="always"
       xlink:href="#linearGradient2246"
       id="linearGradient5335"
       gradientUnits="userSpaceOnUse"
       x1="234.75586"
       y1="411.806"
       x2="1069.9563"
       y2="411.806" /><linearGradient
       inkscape:collect="always"
       xlink:href="#linearGradient2246"
       id="linearGradient5337"
       gradientUnits="userSpaceOnUse"
       x1="234.75586"
       y1="411.806"
       x2="1069.9563"
       y2="411.806" /><linearGradient
       inkscape:collect="always"
       xlink:href="#linearGradient2246"
       id="linearGradient5339"
       gradientUnits="userSpaceOnUse"
       x1="234.75586"
       y1="411.806"
       x2="1069.9563"
       y2="411.806" /><linearGradient
       inkscape:collect="always"
       xlink:href="#linearGradient2246"
       id="linearGradient5341"
       gradientUnits="userSpaceOnUse"
       x1="234.75586"
       y1="411.806"
       x2="1069.9563"
       y2="411.806" /><linearGradient
       inkscape:collect="always"
       xlink:href="#linearGradient2246"
       id="linearGradient5343"
       gradientUnits="userSpaceOnUse"
       x1="234.75586"
       y1="411.806"
       x2="1069.9563"
       y2="411.806" /><linearGradient
       inkscape:collect="always"
       xlink:href="#linearGradient2246"
       id="linearGradient5345"
       gradientUnits="userSpaceOnUse"
       x1="234.75586"
       y1="411.806"
       x2="1069.9563"
       y2="411.806" /><linearGradient
       inkscape:collect="always"
       xlink:href="#linearGradient2246"
       id="linearGradient5347"
       gradientUnits="userSpaceOnUse"
       x1="234.75586"
       y1="411.806"
       x2="1069.9563"
       y2="411.806" /><linearGradient
       inkscape:collect="always"
       xlink:href="#linearGradient2246"
       id="linearGradient5349"
       gradientUnits="userSpaceOnUse"
       x1="234.75586"
       y1="411.806"
       x2="1069.9563"
       y2="411.806" /><linearGradient
       inkscape:collect="always"
       xlink:href="#linearGradient2246"
       id="linearGradient5351"
       gradientUnits="userSpaceOnUse"
       x1="234.75586"
       y1="411.806"
       x2="1069.9563"
       y2="411.806" /></defs><g
     inkscape:label="Layer 1"
     inkscape:groupmode="layer"
     id="layer1"><g
       transform="matrix(0,-5.0372074,-5.0216841,0,2304.5296,279.1447)"
       id="g56"
       style="stroke-width:0.052607"><path
         stroke-linejoin="round"
         d="M 54.271,381.69 53.65,381.28 H 8.22 l -1.13,0.57 v 1.13 22.4 l -7.09,8.5 0.06,7.74 0.29,0.48 0.57,0.28 h 1.99 v 5.11 L 0,431.46 0.1636899,453 H 54.406309 L 54.421,409.46 v -4.2 l 0.149,-22.83 z"
         stroke="#000000"
         stroke-linecap="round"
         stroke-miterlimit="3"
         stroke-width="0.037877"
         fill="url(#j)"
         id="path54"
         style="fill:url(#j);stroke:#c758e6;stroke-width:0.725727;stroke-dasharray:none;stroke-opacity:1"
         sodipodi:nodetypes="ccccccccccccccccccc" /></g><rect
       style="fill:#1b9fff;fill-opacity:1;stroke:none;stroke-width:4.36499;stroke-linecap:round;stroke-miterlimit:2.7;stroke-dasharray:none;stroke-opacity:1;paint-order:fill markers stroke"
       id="rect1697"
       width="3.3170142"
       height="258.59552"
       x="28.408083"
       y="12.21036" /><path
       id="rect1598"
       style="fill:#1b9fff;stroke:#c758e6;stroke-width:4.365;stroke-linecap:round;stroke-miterlimit:4.5;stroke-dasharray:none;paint-order:fill markers stroke"
       d="M 29.708005,278.32016 5.8550245,278.48986 5.8833345,5.1300673 29.708006,5.0888603"
       sodipodi:nodetypes="cccc" /><g
       transform="matrix(0,4.8197446,-5.0216841,0,2328.7341,5.0888599)"
       id="g60"
       style="fill:#1b9fff;fill-opacity:1;stroke:#c758e6;stroke-width:0.37909;stroke-dasharray:none;stroke-opacity:1"><path
         stroke-linejoin="round"
         d="m 0,457.82 c 13.78,-4.11 41.33,-4.2 56.69,0"
         stroke-opacity="0.25"
         stroke="#ffffff"
         stroke-linecap="round"
         stroke-miterlimit="3"
         stroke-width="0.037877"
         fill="none"
         id="path58"
         style="fill:#1b9fff;fill-opacity:1;stroke:#c758e6;stroke-width:0.887253;stroke-dasharray:none;stroke-opacity:1"
         sodipodi:nodetypes="cc" /></g><g
       id="g2236"
       transform="matrix(0.34846923,0,0,0.34846923,-16.717703,61.816837)"
       style="stroke-width:0.759272"><g
         id="DECK"
         transform="matrix(0.28291257,0,0,0.28291257,305.01082,-60.928876)"
         style="stroke-width:1.27997"><path
           id="path20"
           d="m 1650,476.92 h 78.84 v 204.66 l 270.54,-204.8 h 117.86 l -163.89,124.06 180.62,254.2 -97.06,-0.27 -146.34,-206.28 -161.73,122.58 v 83.835 H 1650 v -378 z m -512.74,37.395 c 12.06,-12.06 25.4,-21.285 40.03,-27.675 14.62,-6.39 30.53,-9.585 47.72,-9.585 h 360.18 v 72.225 h -360.18 c -6.39,0 -12.4,1.192 -18.02,3.577 -5.63,2.385 -10.53,5.67 -14.72,9.855 -4.18,4.185 -7.47,9.09 -9.85,14.715 -2.39,5.625 -3.58,11.633 -3.58,18.023 v 141.21 c 0,5.94 1.3,11.677 3.92,17.212 2.61,5.535 6.05,10.44 10.32,14.715 4.28,4.275 9.18,7.718 14.72,10.328 5.53,2.61 11.27,3.915 17.21,3.915 h 360.18 v 72.225 h -360.18 c -8.55,0 -16.85,-0.9 -24.91,-2.7 -8.05,-1.8 -15.79,-4.343 -23.22,-7.628 -7.42,-3.285 -14.47,-7.222 -21.12,-11.812 -6.66,-4.59 -12.83,-9.63 -18.5,-15.12 -11.79,-11.43 -20.95,-24.593 -27.47,-39.488 -6.53,-14.895 -9.79,-30.982 -9.79,-48.262 v -127.98 c 0,-17.28 3.19,-33.21 9.59,-47.79 6.39,-14.58 15.61,-27.9 27.67,-39.96 z M 550,811.715 v -291.33 c 0,-6.48 1.035,-12.375 3.105,-17.685 2.07,-5.31 5.018,-9.878 8.842,-13.703 3.826,-3.825 8.393,-6.772 13.703,-8.842 5.31,-2.07 11.205,-3.105 17.685,-3.105 h 440.36 v 72.225 h -404.72 v 76.545 h 355.59 v 72.225 h -355.59 v 84.78 h 404.72 v 72.225 h -440.36 c -6.48,0 -12.375,-1.035 -17.685,-3.105 -5.31,-2.07 -9.877,-5.018 -13.703,-8.843 -3.824,-3.825 -6.772,-8.392 -8.842,-13.702 C 551.035,824.09 550,818.195 550,811.715 Z m -102.07,151.02 c -12.06,12.06 -25.403,21.285 -40.028,27.675 -14.625,6.39 -30.532,9.585 -47.722,9.585 H 78.98 V 927.77 h 281.2 c 6.39,0 12.397,-1.192 18.022,-3.578 5.625,-2.384 10.53,-5.67 14.715,-9.855 4.185,-4.185 7.47,-9.089 9.855,-14.715 2.385,-5.624 3.578,-11.632 3.578,-18.022 V 595.45 c 0,-5.94 -1.305,-11.678 -3.915,-17.213 -2.61,-5.535 -6.053,-10.44 -10.328,-14.715 -4.275,-4.275 -9.18,-7.717 -14.715,-10.327 -5.535,-2.61 -11.272,-3.915 -17.212,-3.915 H 78.98 v -72.225 h 281.2 c 8.55,0 16.852,0.9 24.907,2.7 8.055,1.8 15.795,4.342 23.22,7.627 7.425,3.285 14.468,7.223 21.128,11.813 6.66,4.59 12.825,9.63 18.495,15.12 11.79,11.43 20.947,24.592 27.472,39.487 6.525,14.895 9.788,30.983 9.788,48.263 v 272.92 c 0,17.28 -3.195,33.21 -9.585,47.79 -6.39,14.58 -15.615,27.9 -27.675,39.96 z"
           fill="#ffffff"
           style="stroke-width:2.43527" /></g><g
         id="Gamepad-8"
         transform="matrix(0.28291257,0,0,0.28291257,305.01082,126.78774)"
         style="stroke-width:1.27997"><path
           id="path23-8"
           d="m 282.08,100 c 0,27.596 -22.404,50 -50,50 H 50 C 22.404,150 0,127.596 0,100 V 50 C 0,22.404 22.404,0 50,0 h 182.08 c 27.596,0 50,22.404 50,50 z M 41.41,60.799 H 28.708 c -5.406,0 -9.794,4.389 -9.794,9.794 v 9.794 c 0,5.405 4.388,9.793 9.794,9.793 H 41.41 v 12.036 c 0,5.519 4.481,10 10,10 h 10 c 5.52,0 10,-4.481 10,-10 V 90.18 h 12.71 c 5.406,0 9.794,-4.388 9.794,-9.793 v -9.794 c 0,-5.405 -4.388,-9.794 -9.794,-9.794 H 71.41 V 48.763 c 0,-5.519 -4.48,-10 -10,-10 h -10 c -5.519,0 -10,4.481 -10,10 z m 146.75,-3.672 c 0,10.134 8.402,18.363 18.75,18.363 10.348,0 18.75,-8.229 18.75,-18.363 0,-10.135 -8.402,-18.364 -18.75,-18.364 -10.348,0 -18.75,8.229 -18.75,18.364 z m 37.5,36.726 c 0,10.135 8.402,18.363 18.75,18.363 10.348,0 18.75,-8.228 18.75,-18.363 0,-10.135 -8.402,-18.363 -18.75,-18.363 -10.348,0 -18.75,8.228 -18.75,18.363 z"
           fill="url(#_Linear1)"
           style="fill:url(#linearGradient3653);stroke-width:1.27997" /></g><path
         id="path8936"
         d="m 937.94049,35.46604 c -3.3355,-3.23362 -5.9269,-6.957452 -7.7713,-11.17142 -1.8474,-4.213909 -2.7696,-8.764868 -2.7696,-13.653871 v -36.206105 c 0,-4.888602 0.9052,-9.395428 2.713,-13.519824 1.8049,-4.124753 4.4162,-7.892895 7.8282,-11.304873 3.4119,-3.411873 7.1859,-6.021414 11.3251,-7.829424 4.1361,-1.807787 8.6373,-2.711673 13.5002,-2.711673 h 66.15181 c 4.8631,0 9.364,0.903886 13.5002,2.711673 4.139,1.807773 7.9131,4.417551 11.3251,7.829424 3.4119,3.411859 6.0232,7.179882 7.8306,11.304873 1.805,4.124753 2.7102,8.6314 2.7102,13.519824 v 36.206105 c 0,4.888587 -0.9223,9.439902 -2.7695,13.653871 -1.8446,4.213924 -4.4361,7.937963 -7.7714,11.17142 -1.604,1.553117 -3.3495,2.979009 -5.2309,4.277559 -1.8842,1.298535 -3.8787,2.41235 -5.9781,3.341699 -2.102,0.929334 -4.2917,1.648798 -6.5689,2.157991 -2.2803,0.509223 -4.6284,0.763835 -7.047,0.763835 h -66.15181 c -2.4189,0 -4.767,-0.254612 -7.047,-0.763835 -2.2774,-0.509238 -4.4671,-1.228657 -6.5689,-2.157991 -2.0991,-0.929349 -4.0937,-2.043164 -5.9751,-3.341699 -1.8841,-1.29855 -3.6297,-2.724382 -5.2338,-4.277559 z m 11.7634,-22.95381 c 0,1.680489 0.3678,3.303497 1.109,4.869382 0.7383,1.565885 1.7115,2.953502 2.9195,4.162955 1.2109,1.209437 2.5971,2.183453 4.1644,2.92184 1.5645,0.738401 3.1884,1.107587 4.8689,1.107587 h 66.15171 c 1.6804,0 3.3043,-0.369186 4.8688,-1.107587 1.5673,-0.738387 2.9536,-1.712403 4.1644,-2.92184 1.208,-1.209453 2.1812,-2.59707 2.9224,-4.162955 0.7384,-1.565885 1.1062,-3.188893 1.1062,-4.869382 v -39.949082 c 0,-1.807787 -0.3367,-3.507496 -1.0128,-5.098531 -0.6733,-1.591615 -1.6041,-2.979009 -2.7867,-4.162939 -1.1853,-1.184005 -2.5715,-2.113577 -4.1644,-2.788032 -1.5899,-0.675035 -3.2901,-1.012203 -5.0979,-1.012203 h -66.15171 c -1.8078,0 -3.5081,0.337213 -5.098,1.012203 -1.5928,0.674455 -2.9791,1.604101 -4.1644,2.788032 -1.1825,1.18399 -2.1133,2.571324 -2.7866,4.162939 -0.6762,1.591035 -1.0128,3.290744 -1.0128,5.098531 z M 784.06353,-60.929723 h 95.36599 c 3.59006,0 6.86907,0.432835 9.83377,1.298534 2.9677,0.865685 5.64117,2.049675 8.02044,3.551866 2.38204,1.502221 4.45575,3.284501 6.22664,5.346944 1.76816,2.062384 3.23924,4.296481 4.41049,6.70296 1.17123,2.405824 2.05103,4.926506 2.63383,7.561895 0.5885,2.635568 0.8657,5.289761 0.8431,7.963486 0,2.724368 -0.2942,5.423288 -0.8799,8.096938 -0.5855,2.673472 -1.4654,5.213135 -2.6338,7.619436 -1.17125,2.406122 -2.64235,4.6277768 -4.41335,6.6650102 -1.76816,2.0369212 -3.83623,3.7999816 -6.20707,5.28946373 -2.36506,1.4894821 -5.03292,2.65449027 -8.00085,3.49474217 -2.96484,0.8402371 -6.24383,1.2603185 -9.83378,1.2603185 h -0.42157 L 913.38359,46.009977 H 885.69264 L 851.31947,3.9218706 H 794.14673 V 46.009977 h -22.30721 l -0.0369,-94.677906 c 0,-1.83322 0.29423,-3.500955 0.87982,-5.003206 0.58279,-1.502235 1.41735,-2.794527 2.50091,-3.876384 1.08073,-1.082377 2.37357,-1.916104 3.87581,-2.501744 1.50222,-0.585611 3.17138,-0.878454 5.00462,-0.878454 z m 94.94484,44.417514 c 1.65782,0 3.10632,-0.343724 4.35674,-1.031185 1.24478,-0.687431 2.28873,-1.591333 3.13183,-2.711673 0.84017,-1.120282 1.46825,-2.399894 1.88976,-3.838481 0.41873,-1.438586 0.63655,-2.908849 0.64786,-4.411099 0.0149,-1.502221 -0.18387,-2.972781 -0.59127,-4.411367 -0.40734,-1.438587 -1.02414,-2.717917 -1.85305,-3.838184 -0.82606,-1.120296 -1.87,-2.024197 -3.13176,-2.711688 -1.25892,-0.687446 -2.74134,-1.031184 -4.45011,-1.031184 h -84.86075 v 23.984756 z M 616.20465,-40.496951 v -20.432772 h 136.88287 v 20.432772 H 695.83886 V 46.006886 H 673.49484 V -40.496951 Z M 460.60688,33.751735 v -82.41681 c 0,-1.833235 0.2928,-3.50097 0.87844,-5.003206 0.58562,-1.502235 1.41962,-2.794542 2.50144,-3.876681 1.0824,-1.082095 2.37446,-1.915866 3.8767,-2.501462 1.50224,-0.585611 3.16997,-0.878439 5.00319,-0.878439 H 597.4469 v 20.432772 H 482.94483 v 21.65532 H 583.5427 V 1.5960013 H 482.94483 V 25.580757 H 597.4469 V 46.01353 H 472.86665 c -1.83322,0 -3.50095,-0.292813 -5.00319,-0.878438 -1.50224,-0.585611 -2.79425,-1.419605 -3.8767,-2.501745 -1.08182,-1.08208 -1.91586,-2.374163 -2.50144,-3.876399 -0.58561,-1.502221 -0.87844,-3.169957 -0.87844,-5.003192 z m -143.3367,-94.677906 h 95.36599 c 3.59007,0 6.86848,0.43285 9.83439,1.298535 2.96657,0.865685 5.64004,2.04969 8.02042,3.551866 2.38091,1.502236 4.45605,3.284516 6.22546,5.346944 1.76988,2.062384 3.24014,4.296481 4.41138,6.702365 1.17123,2.405899 2.04969,4.926803 2.63527,7.561895 0.58561,2.635286 0.86568,5.289776 0.84025,7.963486 0,2.724368 -0.29281,5.423288 -0.87845,8.096953 -0.58561,2.673472 -1.46404,5.21312 -2.63527,7.619436 -1.17126,2.406121 -2.6415,4.6277618 -4.41139,6.6649804 -1.76928,2.036936 -3.83818,3.7999964 -6.20588,5.28947853 -2.36768,1.4894821 -5.03488,2.65449027 -8.00145,3.49474217 -2.96597,0.8402371 -6.24442,1.2603333 -9.83437,1.2603333 h -0.42011 L 446.58959,46.012935 H 418.9004 L 384.52725,3.9248434 H 327.35331 V 46.012935 h -22.30425 l -0.0382,-94.677906 c 0,-1.833235 0.29281,-3.50097 0.87845,-5.003191 0.58561,-1.502236 1.4196,-2.794542 2.50145,-3.876696 1.08237,-1.08208 2.37444,-1.915851 3.87668,-2.501447 1.50223,-0.585611 3.16997,-0.878439 5.0032,-0.878439 z m 94.94483,44.417529 c 1.65498,0 3.10632,-0.343723 4.35391,-1.031199 1.24758,-0.687447 2.29152,-1.591333 3.13177,-2.711659 0.84024,-1.120296 1.47027,-2.399909 1.89035,-3.838495 0.42011,-1.438587 0.63685,-2.908849 0.6493,-4.411085 0.0134,-1.502236 -0.18446,-2.972795 -0.59185,-4.411382 -0.40737,-1.438586 -1.02464,-2.717902 -1.85244,-3.838183 -0.82719,-1.120296 -1.87144,-2.024182 -3.13177,-2.711688 -1.26033,-0.687491 -2.74335,-1.031185 -4.44929,-1.031185 h -84.86073 v 23.984757 z"
         fill="url(#linearGradient8947)"
         style="white-space:pre;shape-inside:url(#rect752);fill:url(#linearGradient8947-8);stroke-width:1.75768;paint-order:fill markers stroke"
         sodipodi:nodetypes="ccsscscsscscsscccccsscccccscccsscccsscccsscccsscsccccccsccccsccccccccccscccccccsccscccccccccccccsscssccccccccccsscssccscccsscsccscsccccccccccccccscscscssccc" /><g
         aria-label="Metadata Missing"
         transform="matrix(1.1054671,0,0,3.2095744,120.22771,-608.92181)"
         id="text376"
         style="font-size:64px;line-height:0;font-family:'Upheaval TT (BRK)';-inkscape-font-specification:'Upheaval TT (BRK)';white-space:pre;shape-inside:url(#rect378);fill:url(#linearGradient992);stroke-width:1.21895;stroke-linecap:square;paint-order:fill markers stroke"><path
           d="m 196.56758,285.76497 h 3.2 v 3.2 h 3.2 v 3.2 h 3.2 v -3.2 h 3.2 v -3.2 h 3.2 v 16 h 12.8 v -32 h -12.8 v 3.2 h -3.2 v 3.2 h -3.2 v 3.2 h -3.2 v -3.2 h -3.2 v -3.2 h -3.2 v -3.2 h -12.8 v 32 h 12.8 z"
           id="path284"
           style="fill:url(#linearGradient5283);stroke-width:1.21895" /><path
           d="m 231.76763,301.76497 h 32 v -6.4 h -22.4 v -6.4 h 9.6 v -6.4 h -9.6 v -6.4 h 22.4 v -6.4 h -32 v 3.2 h -3.2 v 25.6 h 3.2 z"
           id="path286"
           style="fill:url(#linearGradient5285);stroke-width:1.21895" /><path
           d="m 289.36765,276.16497 h 9.6 v -6.4 h -32 v 6.4 h 9.6 v 25.6 h 12.8 z"
           id="path288"
           style="fill:url(#linearGradient5287);stroke-width:1.21895" /><path
           d="m 314.9676,288.96497 h 9.6 v 12.8 h 12.8 v -28.8 h -3.2 v -3.2 h -9.6 -19.2 v 3.2 h -3.2 v 28.8 h 12.8 z m 0,-12.8 h 9.6 v 6.4 h -9.6 z"
           id="path290"
           style="fill:url(#linearGradient5289);stroke-width:1.21895" /><path
           d="m 369.36763,298.56497 h 3.2 v -3.2 h 3.2 v -19.2 h -3.2 v -3.2 h -3.2 v -3.2 h -6.4 -3.2 -19.2 v 32 h 28.8 z m -9.6,-19.2 h 3.2 v 12.8 h -3.2 v 3.2 h -6.4 v -19.2 h 6.4 z"
           id="path292"
           style="fill:url(#linearGradient5291);stroke-width:1.21895" /><path
           d="m 391.76765,288.96497 h 9.6 v 12.8 h 12.8 v -28.8 h -3.2 v -3.2 h -9.6 -19.2 v 3.2 h -3.2 v 28.8 h 12.8 z m 0,-12.8 h 9.6 v 6.4 h -9.6 z"
           id="path294"
           style="fill:url(#linearGradient5293);stroke-width:1.21895" /><path
           d="m 439.76768,276.16497 h 9.6 v -6.4 h -32 v 6.4 h 9.6 v 25.6 h 12.8 z"
           id="path296"
           style="fill:url(#linearGradient5295);stroke-width:1.21895" /><path
           d="m 465.36763,288.96497 h 9.6 v 12.8 h 12.8 v -28.8 h -3.2 v -3.2 h -9.6 -19.2 v 3.2 h -3.2 v 28.8 h 12.8 z m 0,-12.8 h 9.6 v 6.4 h -9.6 z"
           id="path298"
           style="fill:url(#linearGradient5297);stroke-width:1.21895" /><path
           d="m 526.16768,285.76497 h 3.2 v 3.2 h 3.2 v 3.2 h 3.2 v -3.2 h 3.2 v -3.2 h 3.2 v 16 h 12.8 v -32 h -12.8 v 3.2 h -3.2 v 3.2 h -3.2 v 3.2 h -3.2 v -3.2 h -3.2 v -3.2 h -3.2 v -3.2 h -12.8 v 32 h 12.8 z"
           id="path300"
           style="fill:url(#linearGradient5299);stroke-width:1.21895" /><path
           d="m 558.16772,276.16497 h 9.6 v 19.2 h -9.6 v 6.4 h 32 v -6.4 h -9.6 v -19.2 h 9.6 v -6.4 h -32 z"
           id="path302"
           style="fill:url(#linearGradient5301);stroke-width:1.21895" /><path
           d="m 593.36768,301.76497 h 32 v -3.2 h 3.2 v -12.8 h -3.2 v -3.2 h -9.6 -9.6 v -6.4 h 22.4 v -6.4 h -32 v 3.2 h -3.2 v 12.8 h 3.2 v 3.2 h 19.2 v 6.4 h -22.4 z"
           id="path304"
           style="fill:url(#linearGradient5303);stroke-width:1.21895" /><path
           d="m 631.7677,301.76497 h 32 v -3.2 h 3.2 v -12.8 h -3.2 v -3.2 h -9.6 -9.6 v -6.4 h 22.4 v -6.4 h -32 v 3.2 h -3.2 v 12.8 h 3.2 v 3.2 h 19.2 v 6.4 h -22.4 z"
           id="path306"
           style="fill:url(#linearGradient5305);stroke-width:1.21895" /><path
           d="m 670.16772,276.16497 h 9.6 v 19.2 h -9.6 v 6.4 h 32 v -6.4 h -9.6 v -19.2 h 9.6 v -6.4 h -32 z"
           id="path308"
           style="fill:url(#linearGradient5307);stroke-width:1.21895" /><path
           d="m 718.16768,285.76497 h 3.2 v 3.2 h 3.2 v 3.2 h 3.2 v 9.6 h 12.8 v -32 h -12.8 v 9.6 h -3.2 v -3.2 h -3.2 v -3.2 h -3.2 v -3.2 h -12.8 v 32 h 12.8 z"
           id="path310"
           style="fill:url(#linearGradient5309);stroke-width:1.21895" /><path
           d="m 775.7677,298.56497 h 3.2 v -12.8 h -3.2 v -3.2 h -16 v 6.4 h 6.4 v 6.4 h -9.6 v -19.2 h 22.4 v -6.4 h -32 v 3.2 h -3.2 v 25.6 h 3.2 v 3.2 h 28.8 z"
           id="path312"
           style="fill:url(#linearGradient5311);stroke-width:1.21895" /></g><g
         aria-label="Please Scrape Game DAta"
         transform="matrix(1.1054671,0,0,3.2095744,-55.135157,-889.50625)"
         id="text2236"
         style="font-size:64px;font-family:'Upheaval TT (BRK)';-inkscape-font-specification:'Upheaval TT (BRK)';white-space:pre;shape-inside:url(#rect2238);fill:url(#linearGradient2248);stroke-width:1.21895;stroke-linecap:square;paint-order:fill markers stroke"><path
           d="m 247.55586,415.00599 h 19.2 v -3.2 h 3.2 v -12.8 h -3.2 v -3.2 h -9.6 -9.6 -12.8 v 32 h 12.8 z m 0,-12.8 h 9.6 v 6.4 h -9.6 z"
           id="path315"
           style="fill:url(#linearGradient5313);stroke-width:1.21895" /><path
           d="m 273.15588,427.80599 h 35.2 v -6.4 h -22.4 v -25.6 h -12.8 z"
           id="path317"
           style="fill:url(#linearGradient5315);stroke-width:1.21895" /><path
           d="m 314.75591,427.80599 h 32 v -6.4 h -22.4 v -6.4 h 9.6 v -6.4 h -9.6 v -6.4 h 22.4 v -6.4 h -32 v 3.2 h -3.2 v 25.6 h 3.2 z"
           id="path319"
           style="fill:url(#linearGradient5317);stroke-width:1.21895" /><path
           d="m 362.75593,415.00599 h 9.6 v 12.8 h 12.8 v -28.8 h -3.2 v -3.2 h -9.6 -19.2 v 3.2 h -3.2 v 28.8 h 12.8 z m 0,-12.8 h 9.6 v 6.4 h -9.6 z"
           id="path321"
           style="fill:url(#linearGradient5319);stroke-width:1.21895" /><path
           d="m 388.35596,427.80599 h 32 v -3.2 h 3.2 v -12.8 h -3.2 v -3.2 h -9.6 -9.6 v -6.4 h 22.4 v -6.4 h -32 v 3.2 h -3.2 v 12.8 h 3.2 v 3.2 h 19.2 v 6.4 h -22.4 z"
           id="path323"
           style="fill:url(#linearGradient5321);stroke-width:1.21895" /><path
           d="m 429.95598,427.80599 h 32 v -6.4 h -22.4 v -6.4 h 9.6 v -6.4 h -9.6 v -6.4 h 22.4 v -6.4 h -32 v 3.2 h -3.2 v 25.6 h 3.2 z"
           id="path325"
           style="fill:url(#linearGradient5323);stroke-width:1.21895" /><path
           d="m 487.55603,427.80599 h 32 v -3.2 h 3.2 v -12.8 h -3.2 v -3.2 h -9.6 -9.6 v -6.4 h 22.4 v -6.4 h -32 v 3.2 h -3.2 v 12.8 h 3.2 v 3.2 h 19.2 v 6.4 h -22.4 z"
           id="path327"
           style="fill:url(#linearGradient5325);stroke-width:1.21895" /><path
           d="m 557.95605,424.60599 h 3.2 v -9.6 h -3.2 -9.6 v 6.4 h -9.6 v -19.2 h 9.6 v 6.4 h 12.8 v -9.6 h -3.2 v -3.2 h -19.2 -9.6 v 3.2 h -3.2 v 25.6 h 3.2 v 3.2 h 28.8 z"
           id="path329"
           style="fill:url(#linearGradient5327);stroke-width:1.21895" /><path
           d="m 577.15608,415.00599 h 9.6 v 12.8 h 12.8 v -12.8 h -3.2 v -6.4 h 3.2 v -9.6 h -3.2 v -3.2 h -9.6 -9.6 -12.8 v 32 h 12.8 z m 0,-12.8 h 9.6 v 6.4 h -9.6 z"
           id="path331"
           style="fill:url(#linearGradient5329);stroke-width:1.21895" /><path
           d="m 615.5561,415.00599 h 9.6 v 12.8 h 12.8 v -28.8 h -3.2 v -3.2 h -9.6 -19.2 v 3.2 h -3.2 v 28.8 h 12.8 z m 0,-12.8 h 9.6 v 6.4 h -9.6 z"
           id="path333"
           style="fill:url(#linearGradient5331);stroke-width:1.21895" /><path
           d="m 653.95613,415.00599 h 19.2 v -3.2 h 3.2 v -12.8 h -3.2 v -3.2 h -9.6 -9.6 -12.8 v 32 h 12.8 z m 0,-12.8 h 9.6 v 6.4 h -9.6 z"
           id="path335"
           style="fill:url(#linearGradient5333);stroke-width:1.21895" /><path
           d="m 682.75615,427.80599 h 32 v -6.4 h -22.4 v -6.4 h 9.6 v -6.4 h -9.6 v -6.4 h 22.4 v -6.4 h -32 v 3.2 h -3.2 v 25.6 h 3.2 z"
           id="path337"
           style="fill:url(#linearGradient5335);stroke-width:1.21895" /><path
           d="m 772.3562,424.60599 h 3.2 v -12.8 h -3.2 v -3.2 h -16 v 6.4 h 6.4 v 6.4 h -9.6 v -19.2 h 22.4 v -6.4 h -32 v 3.2 h -3.2 v 25.6 h 3.2 v 3.2 h 28.8 z"
           id="path339"
           style="fill:url(#linearGradient5337);stroke-width:1.21895" /><path
           d="m 791.55623,415.00599 h 9.6 v 12.8 h 12.8 v -28.8 h -3.2 v -3.2 h -9.6 -19.2 v 3.2 h -3.2 v 28.8 h 12.8 z m 0,-12.8 h 9.6 v 6.4 h -9.6 z"
           id="path341"
           style="fill:url(#linearGradient5339);stroke-width:1.21895" /><path
           d="m 829.95625,411.80599 h 3.2 v 3.2 h 3.2 v 3.2 h 3.2 v -3.2 h 3.2 v -3.2 h 3.2 v 16 h 12.8 v -32 h -12.8 v 3.2 h -3.2 v 3.2 h -3.2 v 3.2 h -3.2 v -3.2 h -3.2 v -3.2 h -3.2 v -3.2 h -12.8 v 32 h 12.8 z"
           id="path343"
           style="fill:url(#linearGradient5341);stroke-width:1.21895" /><path
           d="m 865.1563,427.80599 h 32 v -6.4 h -22.4 v -6.4 h 9.6 v -6.4 h -9.6 v -6.4 h 22.4 v -6.4 h -32 v 3.2 h -3.2 v 25.6 h 3.2 z"
           id="path345"
           style="fill:url(#linearGradient5343);stroke-width:1.21895" /><path
           d="m 951.55635,424.60599 h 3.2 v -3.2 h 3.2 v -19.2 h -3.2 v -3.2 h -3.2 v -3.2 h -6.4 -3.2 -19.2 v 32 h 28.8 z m -9.6,-19.2 h 3.2 v 12.8 h -3.2 v 3.2 h -6.4 v -19.2 h 6.4 z"
           id="path347"
           style="fill:url(#linearGradient5345);stroke-width:1.21895" /><path
           d="m 973.95637,415.00599 h 9.6 v 12.8 h 12.8 v -28.8 h -3.2 v -3.2 h -9.6 -19.2 v 3.2 h -3.2 v 28.8 h 12.8 z m 0,-12.8 h 9.6 v 6.4 h -9.6 z"
           id="path349"
           style="fill:url(#linearGradient5347);stroke-width:1.21895" /><path
           d="m 1021.9564,402.20599 h 9.6 v -6.4 h -32 v 6.4 h 9.6 v 25.6 h 12.8 z"
           id="path351"
           style="fill:url(#linearGradient5349);stroke-width:1.21895" /><path
           d="m 1047.5563,415.00599 h 9.6 v 12.8 h 12.8 v -28.8 h -3.2 v -3.2 h -9.6 -19.2 v 3.2 h -3.2 v 28.8 h 12.8 z m 0,-12.8 h 9.6 v 6.4 h -9.6 z"
           id="path353"
           style="fill:url(#linearGradient5351);stroke-width:1.21895" /></g></g></g></svg>
