<?xml version="1.0" encoding="UTF-8" standalone="no"?>
<svg
   id="svg29"
   version="1.1"
   viewBox="0 0 1280 490"
   sodipodi:docname="retrodeck.svg"
   inkscape:version="1.2.2 (732a01da63, 2022-12-09)"
   width="1280"
   height="490"
   xmlns:inkscape="http://www.inkscape.org/namespaces/inkscape"
   xmlns:sodipodi="http://sodipodi.sourceforge.net/DTD/sodipodi-0.dtd"
   xmlns="http://www.w3.org/2000/svg"
   xmlns:svg="http://www.w3.org/2000/svg">
  <sodipodi:namedview
     id="namedview19"
     pagecolor="#ffffff"
     bordercolor="#111111"
     borderopacity="1"
     inkscape:showpageshadow="0"
     inkscape:pageopacity="0"
     inkscape:pagecheckerboard="1"
     inkscape:deskcolor="#d1d1d1"
     showgrid="false"
     inkscape:zoom="0.94140625"
     inkscape:cx="638.93776"
     inkscape:cy="401.52697"
     inkscape:window-width="1920"
     inkscape:window-height="1009"
     inkscape:window-x="-8"
     inkscape:window-y="-8"
     inkscape:window-maximized="1"
     inkscape:current-layer="svg29" />
  <defs
     id="defs33">
    <linearGradient
       id="linearGradient8947"
       x1="44.403999"
       x2="1324.4"
       y1="472.79001"
       y2="472.79001"
       gradientUnits="userSpaceOnUse">
      <stop
         id="stop8941"
         stop-color="#c957e6"
         offset="0" />
      <stop
         id="stop8943"
         stop-color="#1a9fff"
         offset="1" />
    </linearGradient>
  </defs>
  <linearGradient
     id="_Linear1"
     x2="1"
     gradientTransform="matrix(282.08,0,0,150,0,75)"
     gradientUnits="userSpaceOnUse">
    <stop
       id="stop2"
       stop-color="#c957e6"
       offset="0" />
    <stop
       id="stop4"
       stop-color="#c957e6"
       offset="0.48123288" />
    <stop
       id="stop6"
       stop-color="#1a9fff"
       offset=".9" />
    <stop
       id="stop8"
       stop-color="#1a9fff"
       offset="1" />
  </linearGradient>
  <g
     id="DECK"
     transform="matrix(0.47693,0,0,0.47693,0,3.54)">
    <path
       id="path20"
       d="m 1650,476.92 h 78.84 v 204.66 l 270.54,-204.8 h 117.86 l -163.89,124.06 180.62,254.2 -97.06,-0.27 -146.34,-206.28 -161.73,122.58 v 83.835 H 1650 v -378 z m -512.74,37.395 c 12.06,-12.06 25.4,-21.285 40.03,-27.675 14.62,-6.39 30.53,-9.585 47.72,-9.585 h 360.18 v 72.225 h -360.18 c -6.39,0 -12.4,1.192 -18.02,3.577 -5.63,2.385 -10.53,5.67 -14.72,9.855 -4.18,4.185 -7.47,9.09 -9.85,14.715 -2.39,5.625 -3.58,11.633 -3.58,18.023 v 141.21 c 0,5.94 1.3,11.677 3.92,17.212 2.61,5.535 6.05,10.44 10.32,14.715 4.28,4.275 9.18,7.718 14.72,10.328 5.53,2.61 11.27,3.915 17.21,3.915 h 360.18 v 72.225 h -360.18 c -8.55,0 -16.85,-0.9 -24.91,-2.7 -8.05,-1.8 -15.79,-4.343 -23.22,-7.628 -7.42,-3.285 -14.47,-7.222 -21.12,-11.812 -6.66,-4.59 -12.83,-9.63 -18.5,-15.12 -11.79,-11.43 -20.95,-24.593 -27.47,-39.488 -6.53,-14.895 -9.79,-30.982 -9.79,-48.262 v -127.98 c 0,-17.28 3.19,-33.21 9.59,-47.79 6.39,-14.58 15.61,-27.9 27.67,-39.96 z M 550,811.715 v -291.33 c 0,-6.48 1.035,-12.375 3.105,-17.685 2.07,-5.31 5.018,-9.878 8.842,-13.703 3.826,-3.825 8.393,-6.772 13.703,-8.842 5.31,-2.07 11.205,-3.105 17.685,-3.105 h 440.36 v 72.225 h -404.72 v 76.545 h 355.59 v 72.225 h -355.59 v 84.78 h 404.72 v 72.225 h -440.36 c -6.48,0 -12.375,-1.035 -17.685,-3.105 -5.31,-2.07 -9.877,-5.018 -13.703,-8.843 -3.824,-3.825 -6.772,-8.392 -8.842,-13.702 C 551.035,824.09 550,818.195 550,811.715 Z m -102.07,151.02 c -12.06,12.06 -25.403,21.285 -40.028,27.675 -14.625,6.39 -30.532,9.585 -47.722,9.585 H 78.98 V 927.77 h 281.2 c 6.39,0 12.397,-1.192 18.022,-3.578 5.625,-2.384 10.53,-5.67 14.715,-9.855 4.185,-4.185 7.47,-9.089 9.855,-14.715 2.385,-5.624 3.578,-11.632 3.578,-18.022 V 595.45 c 0,-5.94 -1.305,-11.678 -3.915,-17.213 -2.61,-5.535 -6.053,-10.44 -10.328,-14.715 -4.275,-4.275 -9.18,-7.717 -14.715,-10.327 -5.535,-2.61 -11.272,-3.915 -17.212,-3.915 H 78.98 v -72.225 h 281.2 c 8.55,0 16.852,0.9 24.907,2.7 8.055,1.8 15.795,4.342 23.22,7.627 7.425,3.285 14.468,7.223 21.128,11.813 6.66,4.59 12.825,9.63 18.495,15.12 11.79,11.43 20.947,24.592 27.472,39.487 6.525,14.895 9.788,30.983 9.788,48.263 v 272.92 c 0,17.28 -3.195,33.21 -9.585,47.79 -6.39,14.58 -15.615,27.9 -27.675,39.96 z"
       fill="#ffffff" />
  </g>
  <g
     id="Gamepad"
     transform="matrix(0.47693,0,0,0.47693,0,319.99)">
    <path
       id="path23"
       d="m 282.08,100 c 0,27.596 -22.404,50 -50,50 H 50 C 22.404,150 0,127.596 0,100 V 50 C 0,22.404 22.404,0 50,0 h 182.08 c 27.596,0 50,22.404 50,50 z M 41.41,60.799 H 28.708 c -5.406,0 -9.794,4.389 -9.794,9.794 v 9.794 c 0,5.405 4.388,9.793 9.794,9.793 H 41.41 v 12.036 c 0,5.519 4.481,10 10,10 h 10 c 5.52,0 10,-4.481 10,-10 V 90.18 h 12.71 c 5.406,0 9.794,-4.388 9.794,-9.793 v -9.794 c 0,-5.405 -4.388,-9.794 -9.794,-9.794 H 71.41 V 48.763 c 0,-5.519 -4.48,-10 -10,-10 h -10 c -5.519,0 -10,4.481 -10,10 z m 146.75,-3.672 c 0,10.134 8.402,18.363 18.75,18.363 10.348,0 18.75,-8.229 18.75,-18.363 0,-10.135 -8.402,-18.364 -18.75,-18.364 -10.348,0 -18.75,8.229 -18.75,18.364 z m 37.5,36.726 c 0,10.135 8.402,18.363 18.75,18.363 10.348,0 18.75,-8.228 18.75,-18.363 0,-10.135 -8.402,-18.363 -18.75,-18.363 -10.348,0 -18.75,8.228 -18.75,18.363 z"
       fill="url(#_Linear1)"
       style="fill:#ffffff;fill-opacity:1" />
  </g>
  <g
     id="RETRO"
     transform="matrix(0.47693,0,0,0.47693,0,3.54)">
    <g
       id="text750"
       transform="matrix(2.0967,0,0,2.0967,-93.103,-496.13)"
       fill="#008000"
       stroke-linecap="round"
       stroke-linejoin="round"
       stroke-width="2.315"
       style="white-space:pre;shape-inside:url(#rect752);fill:#1b9fff;fill-opacity:1;paint-order:fill markers stroke"
       aria-label="Powered by ES-DE Frontend">
      <path
         id="path8936"
         d="m 1111.4106,399.12877 c -5.623,-5.4513 -9.9916,-11.729 -13.101,-18.833 -3.1144,-7.1039 -4.6691,-14.776 -4.6691,-23.018 v -61.037 c 0,-8.2413 1.5261,-15.839 4.5737,-22.792 3.0428,-6.9536 7.4449,-13.306 13.197,-19.058 5.7518,-5.7518 12.114,-10.151 19.092,-13.199 6.9727,-3.0476 14.561,-4.5714 22.759,-4.5714 h 111.52 c 8.1984,0 15.786,1.5238 22.759,4.5714 6.9775,3.0476 13.34,7.4472 19.092,13.199 5.7518,5.7518 10.154,12.104 13.201,19.058 3.0428,6.9536 4.569,14.551 4.569,22.792 v 61.037 c 0,8.2413 -1.5548,15.914 -4.6691,23.018 -3.1096,7.1039 -7.4783,13.382 -13.101,18.833 -2.7042,2.6183 -5.6468,5.0221 -8.8184,7.2112 -3.1764,2.1891 -6.5387,4.0668 -10.078,5.6335 -3.5436,1.5667 -7.235,2.7796 -11.074,3.638 -3.8441,0.85847 -7.8026,1.2877 -11.88,1.2877 h -111.52 c -4.0778,0 -8.0363,-0.42924 -11.88,-1.2877 -3.8393,-0.85847 -7.5307,-2.0713 -11.074,-3.638 -3.5388,-1.5667 -6.9012,-3.4444 -10.073,-5.6335 -3.1763,-2.1891 -6.119,-4.5928 -8.8232,-7.2112 z m 19.831,-38.696 c 0,2.833 0.62,5.5691 1.8695,8.2089 1.2448,2.6398 2.8854,4.9791 4.9219,7.018 2.0413,2.0389 4.3782,3.6809 7.0204,4.9257 2.6374,1.2448 5.375,1.8672 8.208,1.8672 h 111.52 c 2.8329,0 5.5705,-0.62239 8.2079,-1.8672 2.6422,-1.2448 4.9792,-2.8868 7.0204,-4.9257 2.0365,-2.0389 3.6771,-4.3782 4.9267,-7.018 1.2448,-2.6398 1.8648,-5.3759 1.8648,-8.2089 v -67.347 c 0,-3.0476 -0.5675,-5.913 -1.7074,-8.5952 -1.1351,-2.6832 -2.7042,-5.0221 -4.6978,-7.018 -1.9983,-1.996 -4.3352,-3.5631 -7.0204,-4.7001 -2.6803,-1.138 -5.5466,-1.7064 -8.5942,-1.7064 h -111.52 c -3.0476,0 -5.9139,0.56849 -8.5943,1.7064 -2.6851,1.137 -5.0221,2.7042 -7.0204,4.7001 -1.9935,1.996 -3.5626,4.3348 -4.6977,7.018 -1.1399,2.6822 -1.7074,5.5476 -1.7074,8.5952 z m -279.24,-123.81 h 160.77 c 6.0522,0 11.58,0.7297 16.578,2.1891 5.003,1.4594 9.51,3.4554 13.521,5.9878 4.0157,2.5325 7.5116,5.5371 10.497,9.014 2.9808,3.4768 5.4608,7.2431 7.4353,11.3 1.9745,4.0558 3.4577,8.3052 4.4402,12.748 0.992,4.4431 1.4594,8.9176 1.4213,13.425 0,4.5928 -0.496,9.1427 -1.4833,13.65 -0.9872,4.507 -2.4705,8.7884 -4.4402,12.845 -1.9745,4.0563 -4.4545,7.8016 -7.4401,11.236 -2.9808,3.4339 -6.4672,6.4061 -10.464,8.9171 -3.9871,2.511 -8.4846,4.475 -13.488,5.8915 -4.9982,1.4165 -10.526,2.1247 -16.578,2.1247 h -0.7107 l 57.952,70.953 h -46.682 l -57.947,-70.953 h -96.383 v 70.953 h -37.606 l -0.062,-159.61 c 0,-3.0905 0.49601,-5.902 1.4832,-8.4345 0.98248,-2.5325 2.3894,-4.7111 4.2161,-6.5349 1.8219,-1.8247 4.0014,-3.2302 6.5339,-4.2175 2.5325,-0.98724 5.3464,-1.4809 8.4369,-1.4809 z m 160.06,74.88 c 2.7948,0 5.2367,-0.57947 7.3447,-1.7384 2.0985,-1.1589 3.8584,-2.6827 5.2797,-4.5714 1.4164,-1.8886 2.4752,-4.0458 3.1858,-6.471 0.7059,-2.4252 1.0731,-4.9038 1.0922,-7.4363 0.024,-2.5325 -0.31,-5.0116 -0.9968,-7.4368 -0.6867,-2.4252 -1.7265,-4.5819 -3.1239,-6.4705 -1.3926,-1.8886 -3.1525,-3.4124 -5.2796,-4.5714 -2.1223,-1.1589 -4.6214,-1.7384 -7.5021,-1.7384 h -143.06 v 40.434 z m -443.04,-40.434 v -34.446 h 230.76 v 34.446 h -96.511 v 145.83 h -37.668 v -145.83 z m -262.31,125.17 v -138.94 c 0,-3.0905 0.49362,-5.902 1.4809,-8.4345 0.98725,-2.5325 2.3932,-4.7111 4.217,-6.5354 1.8247,-1.8242 4.0029,-3.2298 6.5354,-4.217 2.5325,-0.98724 5.344,-1.4809 8.4345,-1.4809 h 210.02 v 34.446 h -193.03 v 36.507 h 169.59 v 34.446 h -169.59 v 40.434 h 193.03 v 34.446 h -210.02 c -3.0905,0 -5.902,-0.49362 -8.4345,-1.4809 -2.5325,-0.98724 -4.7106,-2.3932 -6.5354,-4.2175 -1.8238,-1.8242 -3.2298,-4.0024 -4.217,-6.5349 -0.98724,-2.5325 -1.4809,-5.344 -1.4809,-8.4345 z m -241.64,-159.61 h 160.77 c 6.0522,0 11.579,0.7297 16.579,2.1891 5.0011,1.4594 9.5081,3.4554 13.521,5.9878 4.0138,2.5325 7.5121,5.5371 10.495,9.014 2.9837,3.4768 5.4623,7.2431 7.4368,11.299 1.9745,4.0559 3.4554,8.3057 4.4426,12.748 0.98724,4.4426 1.4594,8.9176 1.4165,13.425 0,4.5928 -0.49362,9.1427 -1.4809,13.65 -0.98724,4.507 -2.4681,8.7884 -4.4426,12.845 -1.9745,4.0563 -4.4531,7.8016 -7.4368,11.236 -2.9827,3.4339 -6.4705,6.4061 -10.462,8.9171 -3.9915,2.511 -8.4879,4.475 -13.489,5.8915 -5.0001,1.4165 -10.527,2.1247 -16.579,2.1247 h -0.70824 l 57.947,70.953 h -46.679 l -57.947,-70.953 h -96.385 v 70.953 h -37.601 l -0.06439,-159.61 c 0,-3.0905 0.49362,-5.902 1.4809,-8.4345 0.98724,-2.5325 2.3932,-4.7111 4.217,-6.5354 1.8247,-1.8242 4.0029,-3.2298 6.5354,-4.217 2.5325,-0.98724 5.344,-1.4809 8.4345,-1.4809 z m 160.06,74.88 c 2.79,0 5.2367,-0.57947 7.3399,-1.7384 2.1032,-1.15893 3.8631,-2.6827 5.2796,-4.5714 1.4165,-1.8886 2.4786,-4.0458 3.1868,-6.471 0.70824,-2.4252 1.0736,-4.9038 1.0946,-7.4363 0.0219,-2.5325 -0.31096,-5.0116 -0.99774,-7.4368 -0.68677,-2.4252 -1.7274,-4.5819 -3.1229,-6.4705 -1.3945,-1.8886 -3.1549,-3.4124 -5.2796,-4.5714 -2.1247,-1.159 -4.6248,-1.7384 -7.5007,-1.7384 h -143.06 v 40.434 z"
         fill="url(#linearGradient8947)"
         style="fill:#ffffff;fill-opacity:1"
         sodipodi:nodetypes="ccsscscsscscsscccccsscccccscccsscccsscccsscccsscsccccccsccccsccccccccccscccccccsccscccccccccccccsscssccccccccccsscssccscccsscsccscsccccccccccccccssscscssccc" />
    </g>
  </g>
</svg>
