<?xml version="1.0" encoding="UTF-8" standalone="no"?>
<!-- Created with Inkscape (http://www.inkscape.org/) -->

<svg
   width="1920"
   height="842"
   viewBox="0 0 507.99999 222.77996"
   version="1.1"
   id="svg5"
   inkscape:version="1.2.2 (732a01da63, 2022-12-09)"
   sodipodi:docname="classic.svg"
   xmlns:inkscape="http://www.inkscape.org/namespaces/inkscape"
   xmlns:sodipodi="http://sodipodi.sourceforge.net/DTD/sodipodi-0.dtd"
   xmlns:xlink="http://www.w3.org/1999/xlink"
   xmlns="http://www.w3.org/2000/svg"
   xmlns:svg="http://www.w3.org/2000/svg">
  <sodipodi:namedview
     id="namedview7"
     pagecolor="#000000"
     bordercolor="#111111"
     borderopacity="1"
     inkscape:showpageshadow="0"
     inkscape:pageopacity="0"
     inkscape:pagecheckerboard="1"
     inkscape:deskcolor="#d1d1d1"
     inkscape:document-units="mm"
     showgrid="false"
     inkscape:zoom="0.5"
     inkscape:cx="991"
     inkscape:cy="474"
     inkscape:window-width="1920"
     inkscape:window-height="1009"
     inkscape:window-x="-8"
     inkscape:window-y="-8"
     inkscape:window-maximized="1"
     inkscape:current-layer="layer1" />
  <defs
     id="defs2">
    <linearGradient
       inkscape:collect="always"
       id="linearGradient1133">
      <stop
         style="stop-color:#c758e6;stop-opacity:1;"
         offset="0"
         id="stop1129" />
      <stop
         style="stop-color:#169fff;stop-opacity:1;"
         offset="1"
         id="stop1131" />
    </linearGradient>
    <rect
       x="299.55188"
       y="353.72614"
       width="1620.4482"
       height="570.42322"
       id="rect239" />
    <rect
       x="207.13693"
       y="109.94191"
       width="1238.0415"
       height="627.78424"
       id="rect233" />
    <linearGradient
       inkscape:collect="always"
       xlink:href="#linearGradient1133"
       id="linearGradient1135"
       x1="-0.52924496"
       y1="110"
       x2="508"
       y2="110"
       gradientUnits="userSpaceOnUse"
       gradientTransform="matrix(0.88675395,0,0,0.88848061,-0.05992163,15.345893)" />
  </defs>
  <g
     inkscape:label="Layer 1"
     inkscape:groupmode="layer"
     id="layer1">
    <g
       aria-label="This "
       transform="matrix(0.19607514,0,0,0.20929746,32.215029,44.728525)"
       id="text231"
       style="font-size:64px;font-family:DREAMS;-inkscape-font-specification:DREAMS;white-space:pre;shape-inside:url(#rect233);display:inline;fill:#ffffff;stroke-width:23.5093;stroke-linecap:round;stroke-miterlimit:4.5;paint-order:fill markers stroke">
      <path
         d="m 217.50472,31.737224 v -34.24 h 229.376 v 34.24 h -95.936 V 176.69722 h -37.44 V 31.737224 Z"
         id="path2608"
         style="stroke-width:23.5093" />
      <path
         d="m 472.16078,-2.502776 h 37.44 v 70.528 h 154.432 v -70.528 h 37.44 V 176.69722 h -37.44 v -74.432 h -154.432 v 74.432 h -37.44 z"
         id="path2610"
         style="stroke-width:23.5093" />
      <path
         d="m 731.29677,-2.502776 h 37.44 V 176.69722 h -37.44 z"
         id="path2612"
         style="stroke-width:23.5093" />
      <path
         d="m 847.7128,-2.502776 h 177.664 v 34.24 h -176.96 q -4.288,0 -7.488,1.536 -3.136,1.536 -5.248,4.096 -2.048,2.56 -3.072,5.824 -1.024,3.2 -1.024,6.592 0.064,3.392 1.088,6.656 1.088,3.2 3.2,5.76 2.112,2.56 5.248,4.096 3.136,1.536 7.296,1.536 l 129.408,0.192 q 9.024,0 16.448,2.112 7.488,2.112 13.44,5.888 5.952,3.712 10.368,8.832 4.48,5.12 7.424,11.2 2.944,6.015996 4.416,12.735996 1.472,6.656 1.472,13.568 0.064,6.72 -1.408,13.376 -1.472,6.592 -4.416,12.672 -2.944,6.016 -7.424,11.2 -4.416,5.184 -10.432,8.96 -5.952,3.776 -13.44,5.952 -7.488,2.176 -16.448,2.176 h -177.28 v -34.24 h 176.576 q 4.224,0 7.36,-1.92 3.2,-1.984 5.312,-4.928 2.112,-3.008 3.136,-6.528 1.088,-3.584 1.088,-6.72 0,-2.88 -1.088,-5.888 -1.024,-3.072 -3.136,-5.504 -2.112,-2.432 -5.312,-3.968 -3.136,-1.6 -7.36,-1.6 l -129.408,-0.192 q -10.752,0 -19.392,-3.008 -8.576,-3.007996 -15.04,-8.191996 -6.4,-5.184 -10.688,-12.032 -4.288,-6.912 -6.4,-14.656 -2.112,-7.808 -2.112,-15.936 0,-8.192 2.176,-15.936 2.176,-7.808 6.464,-14.656 4.288,-6.912 10.688,-12.096 6.464,-5.184 15.04,-8.19199999 8.576,-3.00800001 19.264,-3.00800001 z"
         id="path2614"
         style="stroke-width:23.5093" />
    </g>
    <path
       id="rect453"
       style="fill:url(#linearGradient1135);fill-opacity:1;stroke-width:4.7625;stroke-linecap:round;stroke-miterlimit:4.5;paint-order:fill markers stroke"
       d="m -0.05981609,15.345893 c 0,0 -0.3280182,86.493527 -0.4692423,126.164377 -0.0301328,8.46452 9.75613429,17.64172 18.20421839,17.66758 16.709706,0.0512 51.050721,0.10193 51.050721,0.10193 H 385.83333 v 51.53167 L 449.47247,124.90513 387.60673,41.648466 V 93.180594 H 68.725881 l 0.37347,-77.834701 z M 87.35535,106.15213 h 33.48026 v 7.16622 H 87.35535 c -0.593976,0 -1.154708,0.12069 -1.681757,0.3618 -0.518683,0.23218 -0.974664,0.55825 -1.367859,0.97796 -0.38483,0.41078 -0.690153,0.89747 -0.916031,1.46006 -0.217512,0.55366 -0.326271,1.14742 -0.326271,1.78145 v 14.01102 c 0,0.58938 0.121237,1.16122 0.363848,1.71488 0.242609,0.54473 0.560868,1.03141 0.954064,1.46005 0.401561,0.41971 0.857084,0.75894 1.367401,1.01791 0.518685,0.25897 1.054458,0.38842 1.606605,0.38842 h 33.48026 v 7.16621 H 87.35535 c -0.794757,0 -1.568539,-0.0891 -2.321466,-0.26768 -0.744561,-0.1786 -1.464423,-0.42875 -2.15879,-0.75022 -0.686,-0.33042 -1.338546,-0.72318 -1.95762,-1.17861 -0.619074,-0.45543 -1.191826,-0.95573 -1.718874,-1.50045 -1.095929,-1.13412 -1.949505,-2.43794 -2.560212,-3.91139 -0.602343,-1.48238 -0.9032,-3.08066 -0.9032,-4.79523 v -12.6988 c 0,-1.71456 0.296851,-3.29484 0.890828,-4.74151 0.593975,-1.44667 1.451557,-2.76849 2.572584,-3.96511 1.121025,-1.19662 2.359259,-2.11207 3.714529,-2.7461 1.363636,-0.63404 2.844341,-0.95088 4.442221,-0.95088 z m 38.43709,0 h 7.34062 v 30.33977 h 37.6214 v 7.16621 H 129.8204 c -0.60233,0 -1.15014,-0.10269 -1.64372,-0.30808 -0.49359,-0.20539 -0.9206,-0.49546 -1.28033,-0.87052 -0.35137,-0.38399 -0.62327,-0.83952 -0.81569,-1.3664 -0.19241,-0.52686 -0.28822,-1.11185 -0.28822,-1.75482 z m 53.94728,0 h 36.89326 c 0.60234,0 1.15059,0.10269 1.64418,0.30808 0.49359,0.20539 0.91568,0.50031 1.26704,0.88431 0.35973,0.37505 0.6361,0.82574 0.82851,1.35261 0.19241,0.52687 0.2887,1.11186 0.2887,1.75483 v 33.20615 h -7.34108 V 128.0796 h -30.26796 v 15.57851 h -7.34107 v -33.20615 c 0,-0.64297 0.0963,-1.22796 0.28868,-1.75483 0.19242,-0.52687 0.46432,-0.97756 0.81569,-1.35261 0.35973,-0.384 0.78628,-0.67892 1.27986,-0.88431 0.49359,-0.20539 1.04185,-0.30808 1.64419,-0.30808 z m 56.40669,0 h 34.83573 v 7.16622 h -34.69781 c -0.56051,0 -1.04991,0.10754 -1.46821,0.32186 -0.40993,0.21432 -0.7527,0.50001 -1.02876,0.85721 -0.26771,0.35721 -0.46874,0.76358 -0.60259,1.21901 -0.13386,0.44651 -0.20071,0.90596 -0.20071,1.37925 0.008,0.47329 0.0797,0.93805 0.21354,1.39348 0.14222,0.4465 0.35126,0.84803 0.62733,1.20523 0.27608,0.3572 0.61931,0.64289 1.02922,0.85721 0.40993,0.21431 0.88641,0.32186 1.43018,0.32186 l 25.37392,0.04 c 1.17958,0 2.25468,0.14745 3.22512,0.44214 0.9788,0.29469 1.85688,0.70545 2.6349,1.23232 0.77803,0.51795 1.45599,1.13409 2.03324,1.84849 0.5856,0.71441 1.07055,1.496 1.45538,2.34435 0.38483,0.83942 0.67367,1.72763 0.86608,2.66529 0.19241,0.92872 0.2887,1.87533 0.2887,2.83976 0.008,0.93765 -0.0839,1.8711 -0.27633,2.79982 -0.19242,0.91979 -0.48079,1.80361 -0.86562,2.65197 -0.38483,0.83942 -0.87023,1.62102 -1.45584,2.34436 -0.57724,0.72332 -1.25921,1.34824 -2.04561,1.87511 -0.77802,0.52687 -1.6561,0.94202 -2.6349,1.24564 -0.9788,0.30362 -2.0539,0.45546 -3.22512,0.45546 h -34.76014 v -7.16621 h 34.6222 c 0.55215,0 1.03308,-0.13384 1.44302,-0.40174 0.41828,-0.27684 0.76551,-0.6209 1.04158,-1.03168 0.27608,-0.41971 0.48111,-0.87478 0.61497,-1.36593 0.14222,-0.50008 0.21309,-0.96923 0.21309,-1.4068 0,-0.40185 -0.0708,-0.81261 -0.21309,-1.23232 -0.13386,-0.42864 -0.33889,-0.81264 -0.61497,-1.15198 -0.27607,-0.33934 -0.6233,-0.61626 -1.04158,-0.83058 -0.40994,-0.22324 -0.89087,-0.3347 -1.44302,-0.3347 l -25.3739,-0.04 c -1.40547,0 -2.67267,-0.21023 -3.80206,-0.62993 -1.12102,-0.41972 -2.10432,-0.99108 -2.94927,-1.71442 -0.83657,-0.72333 -1.53503,-1.56285 -2.09554,-2.51836 -0.56052,-0.96444 -0.9786,-1.98696 -1.25467,-3.0675 -0.27608,-1.08945 -0.41426,-2.20105 -0.41426,-3.33516 0,-1.14305 0.14219,-2.2551 0.42663,-3.33563 0.28444,-1.08947 0.70699,-2.11199 1.26749,-3.06751 0.56052,-0.96444 1.25897,-1.80789 2.09556,-2.53122 0.84495,-0.72333 1.82777,-1.29517 2.94881,-1.71488 1.12101,-0.41971 2.3802,-0.62948 3.77731,-0.62948 z m 50.6218,0 h 34.83573 v 7.16622 h -34.69735 c -0.56051,0 -1.04992,0.10754 -1.46821,0.32186 -0.40992,0.21432 -0.75314,0.50001 -1.02921,0.85721 -0.26772,0.35721 -0.46829,0.76358 -0.60213,1.21901 -0.13386,0.44651 -0.20117,0.90596 -0.20117,1.37925 0.008,0.47329 0.0796,0.93805 0.21354,1.39348 0.14222,0.4465 0.35126,0.84803 0.62732,1.20523 0.27609,0.3572 0.6193,0.64289 1.02923,0.85721 0.40993,0.21431 0.88685,0.32186 1.43063,0.32186 l 25.37345,0.04 c 1.17959,0 2.25468,0.14745 3.22513,0.44214 0.97881,0.29469 1.85735,0.70545 2.63537,1.23232 0.77802,0.51795 1.45552,1.13409 2.03277,1.84849 0.5856,0.71441 1.07101,1.496 1.45585,2.34435 0.38482,0.83942 0.67319,1.72763 0.86562,2.66529 0.19241,0.92872 0.28869,1.87533 0.28869,2.83976 0.008,0.93765 -0.0839,1.8711 -0.27632,2.79982 -0.19242,0.91979 -0.4808,1.80361 -0.86562,2.65197 -0.38483,0.83942 -0.87023,1.62102 -1.45585,2.34436 -0.57725,0.72332 -1.25875,1.34824 -2.04514,1.87511 -0.77802,0.52687 -1.65656,0.94202 -2.63537,1.24564 -0.97881,0.30362 -2.05391,0.45546 -3.22513,0.45546 h -34.76012 v -7.16621 h 34.6222 c 0.55215,0 1.03308,-0.13384 1.443,-0.40174 0.41831,-0.27684 0.76553,-0.6209 1.04159,-1.03168 0.27608,-0.41971 0.48112,-0.87478 0.61497,-1.36593 0.14222,-0.50008 0.21309,-0.96923 0.21309,-1.4068 0,-0.40185 -0.0708,-0.81261 -0.21309,-1.23232 -0.13385,-0.42864 -0.33889,-0.81264 -0.61497,-1.15198 -0.27606,-0.33934 -0.62328,-0.61626 -1.04159,-0.83058 -0.40992,-0.22324 -0.89085,-0.3347 -1.443,-0.3347 l -25.37391,-0.04 c -1.40546,0 -2.67267,-0.21023 -3.80206,-0.62993 -1.12103,-0.41972 -2.10431,-0.99108 -2.94926,-1.71442 -0.83658,-0.72333 -1.53503,-1.56285 -2.09556,-2.51836 -0.56051,-0.96444 -0.9786,-1.98696 -1.25466,-3.0675 -0.27608,-1.08945 -0.41426,-2.20105 -0.41426,-3.33516 0,-1.14305 0.14218,-2.2551 0.42663,-3.33563 0.28443,-1.08947 0.70699,-2.11199 1.2675,-3.06751 0.56052,-0.96444 1.25897,-1.80789 2.09556,-2.53122 0.84495,-0.72333 1.82823,-1.29517 2.94925,-1.71488 1.12104,-0.41971 2.37976,-0.62948 3.77686,-0.62948 z m 40.98446,0 h 7.34108 v 37.50598 h -7.34108 z m 24.8089,0 h 33.48025 v 7.16622 h -33.48025 c -0.59398,0 -1.15425,0.12069 -1.6813,0.3618 -0.51868,0.23218 -0.97466,0.55825 -1.36786,0.97796 -0.38484,0.41078 -0.69016,0.89747 -0.91603,1.46006 -0.21752,0.55366 -0.32627,1.14742 -0.32627,1.78145 v 14.01102 c 0,0.58938 0.12123,1.16122 0.36384,1.71488 0.24262,0.54473 0.56041,1.03141 0.95361,1.46005 0.40155,0.41971 0.85754,0.75894 1.36786,1.01791 0.51869,0.25897 1.054,0.38842 1.60615,0.38842 h 33.48025 v 7.16621 h -33.48025 c -0.79476,0 -1.56854,-0.0891 -2.32147,-0.26768 -0.74456,-0.1786 -1.46396,-0.42875 -2.15833,-0.75022 -0.686,-0.33042 -1.33854,-0.72318 -1.95763,-1.17861 -0.61906,-0.45543 -1.19182,-0.95573 -1.71887,-1.50045 -1.09592,-1.13412 -1.94949,-2.43794 -2.56021,-3.91139 -0.60234,-1.48238 -0.90366,-3.08066 -0.90366,-4.79523 v -12.6988 c 0,-1.71456 0.29732,-3.29484 0.89129,-4.74151 0.59398,-1.44667 1.45156,-2.76849 2.57258,-3.96511 1.12103,-1.19662 2.35881,-2.11207 3.71407,-2.7461 1.36364,-0.63404 2.84435,-0.95088 4.44223,-0.95088 z m -169.5092,7.16622 v 7.59505 h 30.26796 v -7.59505 z" />
  </g>
</svg>
